<?xml version="1.0" encoding="UTF-8"?>
<!DOCTYPE svg PUBLIC "-//W3C//DTD SVG 1.0//EN" "http://www.w3.org/TR/2001/REC-SVG-20010904/DTD/svg10.dtd">
<!-- Creator: CorelDRAW 2017 -->
<svg xmlns="http://www.w3.org/2000/svg" xml:space="preserve" width="356px" height="200px" version="1.0" shape-rendering="geometricPrecision" text-rendering="geometricPrecision" image-rendering="optimizeQuality" fill-rule="evenodd" clip-rule="evenodd"
viewBox="0 0 35600 20025"
 xmlns:xlink="http://www.w3.org/1999/xlink">
 <g id="Layer_x0020_1">
  <metadata id="CorelCorpID_0Corel-Layer"/>
  <g id="_2190686034032">
   <path fill="#E6E7E8" d="M0 0l35600 0 0 20025 -35600 0 0 -20025z"/>
   <path fill="#373435" fill-opacity="0.078431" d="M23511 14665l2321 -1982 0 -5340 -825 0 -4681 3998 -30 -105 -54 -237 -43 -241 -31 -245 -19 -248 -7 -252 7 -252 19 -249 31 -245 43 -241 54 -237 66 -232 77 -228 88 -222 98 -217 108 -211 118 -205 128 -199 136 -192 145 -185 154 -178 162 -170 170 -162 178 -154 -5016 4285 0 -2142 18 -181 52 -168 83 -153 110 -133 -7831 6688 -680 0 -62 -6 -57 -17 -51 -29 -46 -37 -37 -45 -28 -52 -18 -57 -6 -61 0 -344 7977 -6812 -56 35 -64 23 -70 8 -3309 0 1712 -1462 42 -51 31 -58 21 -65 7 -70 -7 -69 -21 -65 -31 -59 -42 -51 -52 -42 -58 -32 -65 -20 -69 -7 -70 7 -65 20 -58 32 -51 42 -2283 1950 -1414 0 3794 -3240 639 -1153 18 -27 23 -22 -5201 4442 -538 0 1711 -1462 42 -51 32 -58 20 -65 7 -70 -7 -69 -20 -65 -32 -59 -42 -51 -51 -42 -59 -32 -64 -20 -70 -7 -69 7 -65 20 -59 32 -51 42 -1899 1622 4 -40 52 -217 63 -212 74 -208 85 -202 95 -196 105 -191 115 -184 124 -178 89 -113 1199 -1024 -635 -1145 -12 -29 -7 -31 0 -31 6 -31 11 -28 16 -26 22 -23 -9825 8392 0 9034 20854 0 7299 -6234 -185 145 -192 136 -199 128 -205 118 -211 108 -217 98 -222 88 -228 77 -232 66 -237 54 -241 43 -245 31 -249 19 -252 7 -252 -7 -248 -19 -245 -31 -241 -43 -237 -54 -233 -66 -71 -24z"/>
   <path fill="#64B8B4" d="M25038 5117c2705,0 4897,2192 4897,4896 0,2704 -2192,4896 -4897,4896 -2704,0 -4896,-2192 -4896,-4896 0,-2704 2192,-4896 4896,-4896z"/>
   <path fill="#FEFEFE" d="M25832 12683l-1016 0 0 -3845c-371,349 -809,607 -1313,774l0 -927c266,-86 554,-251 864,-494 312,-243 524,-526 640,-848l825 0 0 5340z"/>
   <path fill="#FEFEFE" d="M10719 4803c414,0 751,288 751,643 0,355 -337,643 -751,643 -415,0 -751,-288 -751,-643 0,-355 336,-643 751,-643zm3629 -78c335,0 607,306 607,684 0,378 -272,684 -607,684 -334,0 -606,-306 -606,-684 0,-378 272,-684 606,-684z"/>
   <path fill="#6FB000" d="M16221 7481l-7561 0c-168,0 -305,136 -305,304l0 6341c0,168 137,305 305,305l1348 0 0 2136c0,496 402,898 897,898 496,0 898,-402 898,-898l0 -2136 1256 0 0 2136c0,496 402,898 897,898 496,0 898,-402 898,-898l0 -2136 1367 0c168,0 304,-137 304,-305l0 -6341c0,-168 -136,-304 -304,-304zm-7500 -445l7421 0c193,0 338,-178 298,-368 -245,-1169 -990,-2155 -2001,-2725l634 -1144c43,-78 15,-176 -62,-218 -78,-44 -175,-16 -218,62l-639 1153c-524,-243 -1107,-378 -1723,-378 -615,0 -1198,135 -1722,378l-639 -1153c-43,-78 -141,-105 -218,-63 -77,43 -106,141 -63,218l635 1145c-1011,570 -1756,1556 -2001,2725 -40,190 104,368 298,368zm5925 -1706c0,191 -155,346 -345,346 -191,0 -345,-155 -345,-346 0,-190 154,-345 345,-345 190,0 345,155 345,345zm-4084 -345c191,0 345,155 345,345 0,191 -154,346 -345,346 -190,0 -345,-155 -345,-346 0,-190 154,-345 345,-345zm7244 2494c-496,0 -898,402 -898,898l0 3646c0,496 402,898 898,898 495,0 897,-402 897,-898l0 -3646c0,-496 -402,-898 -897,-898zm-10731 0c-495,0 -898,402 -898,898l0 3646c0,496 402,898 898,898 496,0 898,-402 898,-898l0 -3646c0,-496 -402,-898 -898,-898z"/>
   <path fill="#373435" fill-opacity="0.031373" d="M2082 17547c68,104 112,203 155,312 32,64 49,183 199,183 44,0 107,-14 163,-45 63,-33 111,-83 136,-159l60 -202 146 -72 10 10c-20,77 -25,149 -25,206 0,170 146,234 262,234 68,0 129,-34 129,-95 0,-81 -34,-217 -78,-339 68,-68 136,-136 214,-191l12 6c34,144 53,287 53,381 0,93 -41,196 -75,264 -70,132 -194,238 -344,238 -114,0 -241,-58 -328,-163l-5 0c-82,101 -209,193 -412,193l-63 0c-10,134 -39,229 -83,314 -121,237 -480,404 -818,404 -470,0 -706,-272 -706,-633 0,-223 73,-431 185,-578l92 38c-70,134 -117,262 -117,385 0,338 275,499 592,499 294,0 658,-187 724,-404 -25,-237 -114,-348 -250,-565 41,-72 94,-144 160,-221l12 0zm5421 -1274c99,62 196,136 291,221 -53,74 -119,142 -201,202 -95,-77 -190,-143 -287,-213 66,-74 131,-146 197,-210zm51 926c-160,0 -291,105 -291,183 0,168 320,219 703,217 -48,-196 -216,-400 -412,-400zm-359 895c208,0 390,-6 529,-41 155,-39 286,-118 286,-171 0,-15 0,-31 -5,-46 -87,8 -187,8 -274,8 -282,0 -498,-64 -583,-222 -21,-44 -36,-93 -36,-149 0,-152 66,-303 182,-406 97,-85 204,-138 313,-138 197,0 354,158 464,408 60,136 101,293 101,491 0,132 -36,243 -118,326 -153,148 -435,204 -867,204l-196 0 0 0 -51 0c-107,0 -184,-19 -245,-66l-10 0c3,25 5,50 5,72 0,97 -32,221 -97,320 -192,287 -400,410 -580,410 -182,0 -405,-70 -606,-161l36 -70c65,27 155,46 279,46 325,0 752,-314 805,-619 -12,-25 -34,-58 -65,-93 -95,-113 -155,-208 -211,-307 48,-95 92,-171 133,-239l17 -2c139,282 265,445 546,445l44 0 0 0 204 0zm-1408 299c24,-130 26,-276 26,-413l0 -202c0,-377 -48,-926 -87,-1282 68,-75 163,-161 238,-219l22 6c51,450 63,972 63,1452 0,126 -5,250 -17,340 -7,114 -73,201 -214,332l-31 -14zm-1449 -596c7,177 94,318 398,318 189,0 349,-50 526,-135 32,-14 49,-33 49,-49 0,-111 -85,-258 -228,-392 -139,-126 -323,-237 -495,-311 -59,-25 -78,-52 -78,-77 0,-51 68,-158 124,-235l19 -2c197,103 417,256 580,427 148,157 240,316 240,489 0,128 -39,250 -102,361 -216,109 -446,192 -674,192 -277,0 -466,-130 -466,-436 0,-33 0,-84 12,-150l95 0zm-501 -503l172 278c63,103 122,215 122,392l0 227c0,183 -117,379 -306,573 -148,132 -279,188 -400,188 -180,0 -386,-56 -624,-159l27 -70c75,21 162,37 269,37 342,-2 692,-252 852,-557 19,-35 26,-68 26,-90 0,-36 -19,-75 -34,-110 -87,-165 -184,-315 -291,-453 56,-89 112,-174 173,-258l14 2z"/>
  </g>
 </g>
</svg>
