<svg xmlns="http://www.w3.org/2000/svg" xml:space="preserve" width="350" height="200" version="1" shape-rendering="geometricPrecision" text-rendering="geometricPrecision" image-rendering="optimizeQuality" fill-rule="evenodd" clip-rule="evenodd" viewBox="0 0 35000 19994"><path fill="#FFE066" fill-rule="nonzero" d="M35000 19994H0V0h35000v19994z"/><path fill="#373435" fill-opacity=".102" d="M23850 19994H0v-1262L11409 3301l-3 4-1 4-1 4-1 3v9l1 3 5 26 5 27 5 26 6 26 5 27 4 26 5 27 4 26 8 71 6 70 4 71v71l-2 70-6 71-8 70-11 71-22 100-28 99-34 95-39 93-44 91-49 88-54 87-59 84-2230 3017 19 45 4 9 723-979 43-58 44-57 47-56 48-55 60-64 61-62 63-61 65-59 66-58 66-56 68-56 68-55 106-86 104-88 102-90 99-92 98-95 95-97 92-101 89-103 65-80 62-81 60-83-2211 2991 23 34 47 65 49 65 50 63 51 62 11 13 1241-1678-46 64-43 66-38 69-36 72-32 78-26 78-21 80-14 80-8 81-2 83 4 83 10 84 12 60 14 60 7 27 761-1029 24-33 25-32 26-32 27-31 61-66 62-63 64-61 66-58 68-58 69-55 70-55 71-53 119-87 122-85 123-83 124-81 125-79 126-77 127-77 127-75 6-4 6-4 7-4 6-3 6-4 7-4 6-4 6-4-2135 2888 18 25 44 57 45 56 45 55 17 21 17 21 16 21 16 22 15 22 14 23 14 23 13 23 35 71 26 71 17 72 9 72 1 74-8 73-16 75-24 74-21 53-24 51-27 48-29 48-32 45-116 157 77-47 77-50 75-52 73-55 70-58 68-60 66-64 64-67 34-39 33-40 31-42-868 1175 53-4 89-7 88-8 81-8 81-9 80-9 81-10 81-11 80-10 80-11 81-11 95-14 96-16 95-16 95-18 94-20 94-21 94-22 94-23 6-1 6-2 6-2 6-2 6-2 6-3 5-3 6-3 54-34 54-33 56-32 56-31 57-29 57-29 58-28 57-27 3-2 3-2 3-1 3-2 3-2 4-2 3-3 4-2-1204 1628 4-1 1462-1976-3 3-2 3-2 4-2 4-3 4-3 5-4 6 9-3 8-2 7-2 7-1 7-2 6-2 6-1 6-2 29-7 30-7 29-7 30-8 29-7 30-6 29-5 30-4 71-5 69 3 67 9 65 15 64 22 61 29 60 35 57 41 74 65 62 70 50 75 37 79 24 84 12 90-1 93-14 99-11 46-14 46-16 44-19 44-20 42-23 41-24 41-26 40-44 62-495 668 90-37 108-50 107-54 74-40 72-42 72-45 69-46 68-50 65-52 63-56 62-58 39-42 38-42 36-45 34-45-2368 3203 38-6 103-15 112-17 49-8 4568-6178v3613l-1 141v205l1683-2276 15 65 16 64 15 63 15 64 15 63 15 63 15 63 15 64 9-3 8-2 7-2 8-2 7-2 7-2 6-2 7-2 98-33 100-31 99-29 101-26 100-23 102-20 103-18 103-14 77-8 77-6 77-5 77-1 77 1 77 5 76 8 77 13 90 22 88 30 83 42 75 55 67 71 54 87 41 108 23 128 5 62 3 62 2 62v187l-1 62 1 62-1 1v2l-1 1-397 538 61-1h83l1572-2126 38 125 39 125 38 125 39 126 38 125 39 125 38 126 39 125 38 125 39 125 38 126 39 125 38 125 39 125 38 126 39 125 38 125 39 126 38 125 39 125v2l1861-2516-14 102-15 103-16 102-16 102-17 102-18 102-18 101-19 101-20 101-21 101-21 101-22 101-23 100-23 100-24 100-25 100-26 99-26 99-26 100-27 98-28 99-29 98-29 99-30 98-30 97-32 98-32 97-33 97-33 97-35 97-35 97-36 96-605 818 4 14h58l2781-3760 15 63 15 63 15 63 15 63 15 62 15 63 15 63 15 63 23-8 22-7 22-7 21-7 21-7 20-7 20-7 21-6 128-39 130-36 130-30 131-26 132-21 132-14 134-9 135-1 51 1 51 3 50 5 50 6 49 9 49 11 49 14 49 16 71 30 63 37 57 42 49 49 43 56 35 61 28 68 22 74 13 73 8 73 4 74 2 74-1 75-1 76v77l2 78-389 525 77-1h94l94 1 94 1h5l3 1 3 1 3 1 4 2 5 1 6 2v219l-1 95v285l1 95v206l-2 15-3 13-5 13-7 12-8 11-695 941 116-34 90-32 88-38 84-42 82-47 81-50 77-54 77-57 74-59 7-6 7-5 7-5 7-6 8-6 8-6 9-6 9-7 9 55 8 55 9 54 8 53 8 53 8 52 8 51 8 52 55 4 82 3 99 1h106l103-2 92-3 70-4 40-5-5064 6849z"/><g fill-rule="nonzero"><g fill="#F25F5C"><path d="M28091 10747c-9-209 17-406-27-600-48-206-170-345-368-417-129-47-262-63-398-65-361-5-710 67-1052 176-54 17-108 35-170 56-40-169-80-334-120-503 20-11 38-21 57-29 545-230 1112-339 1704-297 187 13 370 51 544 125 348 148 554 411 623 780 19 99 28 202 28 303 2 936 2 1872 2 2807v62c-54 16-544 20-647 6-21-137-43-276-66-425-26 19-44 32-62 47-197 161-408 300-653 379-350 114-704 119-1055 9-395-124-610-406-670-810-34-223-22-444 51-659 82-245 236-435 448-580s450-229 699-283c286-63 576-81 868-82 85-1 169 0 264 0zm-1 534c-16-5-22-8-29-8-251-2-502-9-752 27-153 22-302 58-438 135-146 83-243 203-281 367-31 133-31 268 2 401 55 224 198 361 422 411 142 31 283 21 422-17 229-62 424-184 607-330 35-28 48-57 47-102-2-254 0-507 0-760v-124zM21395 13154h-645c-22-140-43-280-66-431-26 21-44 35-62 50-209 171-433 315-694 393-338 100-678 101-1014-5-350-111-568-348-650-707-60-264-53-527 39-784 101-283 297-485 556-630 228-127 476-197 731-240 277-46 556-55 836-53h131c6-9 12-12 12-16-2-166 7-332-10-497-38-374-280-496-521-543-204-40-410-31-615-7-276 33-544 103-806 194-18 6-36 10-59 17-40-170-80-335-121-509 118-45 232-92 348-131 456-153 924-222 1405-188 200 14 394 54 578 137 334 150 531 409 598 767 18 97 28 197 28 296 2 941 1 1881 1 2822v65zm-827-1882h-264c-194-1-388 6-580 40-124 22-244 56-356 116-159 85-262 215-299 393-26 129-25 259 8 387 60 234 212 367 447 411 132 25 263 13 393-21 229-62 424-184 607-330 34-27 49-56 49-101-3-275-2-549-2-824 0-21-2-41-3-71zM24517 9137h873c-254 1392-645 2736-1242 4017h-1031c-410-1336-821-2672-1231-4008 52-17 789-22 892-8 7 20 16 42 23 64 243 784 489 1568 728 2353 58 192 94 391 141 587 14 59 28 119 48 180 194-513 353-1036 487-1566 134-533 239-1071 312-1619zM16755 7703h872c1 22 2 44 2 67 1 161 1 322 1 483-1 1369-1 2738-1 4107 0 244-14 487-40 730-56 512-305 907-715 1207-180 132-411 255-582 308-131-154-264-310-402-472 21-13 37-24 54-34 169-95 318-214 452-353 189-198 291-433 324-703 29-248 34-496 34-745 1-1496 1-2993 1-4490v-105z"/></g><path fill="#F25F5C" d="M10270 9484c-14-10-20-14-25-18-290-264-577-531-838-824-144-161-279-328-392-512-90-148-165-302-207-471-66-267-27-517 121-750 105-167 236-314 377-452 190-186 398-351 605-517 223-178 446-355 665-538 197-166 377-351 529-561 162-222 279-465 329-737 34-188 35-376 9-565-10-71-26-141-39-211-1-7-2-15 5-27 11 15 24 29 35 44 123 164 199 348 233 550 52 315-8 613-134 901-109 252-263 478-438 688-234 280-500 525-785 752-182 146-360 297-517 471-130 145-245 300-329 477-81 172-122 353-113 545 8 152 48 297 107 437 70 167 163 321 264 470 112 164 227 325 336 490 65 100 121 205 180 308 8 12 12 27 22 50z"/><path fill="#247BA0" d="M13746 12970c63 31 122 66 163 125 35 50 39 105 7 155-24 38-55 74-88 104-78 70-172 116-266 159-207 95-424 161-644 217-294 76-592 131-892 176-273 41-547 75-822 96-271 21-542 36-813 49-354 17-708 17-1061 8-260-6-519-19-777-34-215-12-430-28-643-49-251-25-500-55-750-88-189-24-377-54-565-84-113-18-224-45-329-93-41-19-82-42-117-70-72-59-81-133-32-212 32-52 78-94 126-131 121-92 257-158 397-216 247-102 503-174 769-208 128-17 256-24 383 6 32 8 62 21 101 35-12 6-15 9-18 9-221 3-432 53-639 124-100 34-199 71-289 125-39 23-77 50-109 82-53 52-48 103 12 146 26 18 55 33 84 45 169 70 345 113 523 147 280 55 563 87 847 112 684 59 1368 66 2053 50 332-8 665-26 996-45 350-21 700-54 1047-100 286-37 571-82 850-154 109-28 217-60 320-109 60-29 118-62 165-112 32-32 55-69 58-116 3-43-10-81-34-116-6-9-12-18-19-26 2-3 4-5 6-7z"/><path fill="#F25F5C" d="M12771 5619c-17 11-33 21-50 31-340 200-676 408-993 644-190 141-373 291-531 469-73 82-138 170-189 268-100 191-110 387-31 587 54 136 132 258 214 377 65 93 131 184 196 276 68 95 123 197 151 311 41 164 25 323-40 479-55 129-134 243-227 346-166 183-360 329-571 454-5 2-11 4-20 2 9-11 18-21 28-31 104-109 190-231 242-374 75-200 64-395-40-582-34-62-76-121-122-176-122-147-237-298-327-468-77-145-133-297-160-459-36-226-5-441 89-647 89-195 220-358 374-504 190-181 405-328 633-456 424-240 875-415 1342-549 10-3 20-4 31-6 0 3 1 6 1 8z"/><path fill="#247BA0" d="M8757 12048c-22 19-37 31-51 45-83 79-75 151 29 199 55 26 114 45 173 55 111 20 223 36 335 46 188 17 377 31 566 42s378 4 566-9c344-23 684-81 1022-144 22-4 38-1 56 10 179 105 365 195 558 273 9 4 19 9 35 17-22 9-38 16-54 23-338 138-688 234-1048 295-378 63-758 85-1139 69-347-14-690-59-1022-162-120-37-237-81-344-147-38-22-74-48-108-77-24-20-46-45-64-71-50-73-47-149 8-219 34-43 77-75 122-103 91-55 242-115 360-142zM8951 9523c-19 5-38 10-56 15-257 67-512 138-758 239-76 31-149 69-221 109-33 18-62 44-87 73-34 38-29 76 13 106 30 21 66 38 101 51 95 34 195 50 294 63 357 48 715 53 1073 49 292-3 583-10 874-24s581-34 871-60c281-26 561-59 841-95 252-33 503-75 759-113-10 6-17 12-26 16-154 72-306 149-449 243-14 9-31 14-47 18-250 64-502 115-757 150-215 29-429 59-645 79-236 22-474 35-711 50-322 19-643 20-965 17-318-4-634-18-950-48-251-24-501-53-745-117-80-22-159-51-237-83-34-14-66-38-93-63-44-40-44-89-8-135 32-41 73-70 118-93 76-38 153-76 231-110 345-150 704-255 1077-310 166-25 333-38 501-36 1 3 1 6 2 9zM8484 10813c-13 14-24 24-33 35-26 30-54 59-74 93-52 86-33 158 54 208 34 20 71 37 109 46 85 18 170 35 256 44 162 17 325 28 488 41 231 18 463 21 695 18 328-4 655-31 980-73 263-34 525-77 785-127 28-6 48-1 70 18 114 102 242 180 383 238 14 6 27 12 48 21-37 11-67 21-98 29-356 98-717 172-1082 223-479 68-959 99-1442 88-331-8-661-35-986-99-162-32-321-72-473-138-65-28-127-60-181-106-112-95-118-199-12-300 39-38 85-70 132-98 113-70 237-117 363-160 4-2 8-1 18-1zM14431 13557c-1 41-15 79-31 117-29 70-73 130-126 183-102 104-225 177-354 240-211 102-434 171-660 227-284 71-572 120-863 159-354 47-709 77-1065 97-515 27-1030 32-1546 17-235-7-469-19-703-35-332-23-662-58-988-126-133-28-265-60-391-111-32-13-63-29-94-44l3-9c43 6 85 12 127 19 376 55 754 88 1133 110 494 30 988 36 1482 23 306-9 612-26 918-46 329-22 656-60 982-107 419-62 835-139 1243-257 210-60 415-130 611-229 86-44 168-92 242-155 27-24 53-49 80-73zM12648 11627c15-38 40-56 69-71 232-123 456-259 661-424 158-126 303-265 417-434 71-106 127-218 153-344 54-269-30-488-244-655-150-118-324-170-514-149-79 8-157 34-236 51-16 4-32 8-56 15 10-16 14-25 21-32 38-41 81-75 133-94 284-103 569-119 853-6 195 78 349 205 445 395 108 212 104 428 14 645-59 143-150 265-258 374-160 161-346 284-545 389-282 149-581 252-887 336-7 2-15 2-26 4z"/></g></svg>