<?xml version="1.0" encoding="UTF-8"?>
<!DOCTYPE svg PUBLIC "-//W3C//DTD SVG 1.0//EN" "http://www.w3.org/TR/2001/REC-SVG-20010904/DTD/svg10.dtd">
<!-- Creator: CorelDRAW 2017 -->
<svg xmlns="http://www.w3.org/2000/svg" xml:space="preserve" width="356px" height="200px" version="1.0" shape-rendering="geometricPrecision" text-rendering="geometricPrecision" image-rendering="optimizeQuality" fill-rule="evenodd" clip-rule="evenodd"
viewBox="0 0 35600 20025"
 xmlns:xlink="http://www.w3.org/1999/xlink">
 <g id="Layer_x0020_1">
  <metadata id="CorelCorpID_0Corel-Layer"/>
  <g id="_1383767013120">
   <path fill="#E6E7E8" d="M0 0l35600 0 0 20025 -35600 0 0 -20025z"/>
   <path fill="#373435" fill-opacity="0.078431" d="M26008 9429l-825 861 2 1 55 46 53 52 48 59 42 64 35 69 29 73 22 79 16 84 10 88 3 94 -3 99 -10 94 -17 89 -23 83 -30 78 -37 73 -44 68 -50 62 -991 1034 127 26 168 19 176 7 186 -8 178 -23 171 -39 162 -54 155 -69 147 -85 139 -100 131 -116 -2423 2529 186 43 241 43 245 31 248 19 252 7 252 -7 249 -19 245 -31 241 -43 237 -54 232 -66 228 -77 222 -88 217 -98 211 -108 205 -118 199 -128 192 -136 185 -145 178 -154 170 -162 -6279 6550 -3397 0 -1316 0 -1073 0 -328 0 -128 0 -775 0 -221 0 -140 0 -318 0 -385 0 -565 0 -283 0 -804 0 -449 0 -23 0 -132 0 -382 0 -124 0 -383 0 -8 0 -130 0 -1114 0 -252 0 -254 0 -404 0 -173 0 -209 0 -756 0 -1003 0 -252 0 -698 0 -345 0 -753 0 -824 0 -129 0 -395 0 -596 0 -2007 0 -45 0 -88 0 -295 0 -10 0 0 -387 0 -153 0 -1189 0 -95 0 -392 0 -7 0 -1221 0 -138 0 -208 0 -122 0 -245 0 -130 0 -154 0 -395 0 -634 0 -4 0 -252 0 -104 0 -1450 0 -162 9547 -9961 -16 26 -11 28 -6 31 0 31 7 31 12 29 635 1145 -1645 1716 -82 170 -85 202 -74 208 -63 212 -52 217 -7 71 9 67 24 62 35 55 38 37 1796 -1874 51 -42 59 -32 65 -20 69 -7 70 7 64 20 59 32 51 42 42 51 32 59 20 65 7 69 -7 70 -20 65 -32 58 -42 51 -1401 1462 1170 0 4236 -4420 -18 27 -639 1153 -3106 3240 1140 0 1869 -1950 51 -42 58 -32 65 -20 70 -7 69 7 65 20 58 32 52 42 42 51 31 59 21 65 7 69 -7 70 -21 65 -31 58 -42 51 -1402 1462 2999 0 70 -8 64 -23 56 -35 46 -47 -7195 7507 825 0 0 786 7163 -7474 -110 133 -83 153 -52 168 -18 181 0 3044 4668 -4871 -162 170 -154 178 -145 185 -136 192 -128 199 -118 205 -108 211 -98 217 -88 222 -77 228 -66 232 -54 237 -43 241 -31 245 -19 249 -7 252 7 252 19 248 31 245 43 241 54 237 34 117 3425 -3574 -57 67 -51 70 -48 76 -45 82 -42 88 -38 93 -35 101 -33 106 -29 112 -26 118 691 118 469 -489 47 -42 49 -37 52 -31 55 -26 57 -20 59 -14 62 -8 64 -3 64 2 62 8 58 12 54 18 51 22 48 27 45 33 42 37 37 42 32 46 28 48 22 52 18 55 12 59 8 62 2 65 -3 78 -10 73 -17 69 -24 66 -30 61 -37 57 -44 54 -755 787 -37 268 67 -18 64 -15 62 -13 59 -11 57 -9 54 -6 52 -3 50 -1 73 3 70 11 67 17 64 25 38 19 438 -457 180 -109 155 -118 132 -127z"/>
   <g>
    <path fill="#1D9100" d="M15965 7481l-7561 0c-168,0 -305,136 -305,304l0 6341c0,168 137,304 305,304l1348 0 0 2137c0,496 402,898 897,898 496,0 898,-402 898,-898l0 -2137 1256 0 0 2137c0,496 402,898 897,898 496,0 898,-402 898,-898l0 -2137 1367 0c168,0 304,-136 304,-304l0 -6341c0,-168 -136,-304 -304,-304z"/>
    <path fill="#1D9100" d="M6819 7479c-495,0 -898,402 -898,898l0 3646c0,496 402,898 898,898 496,0 898,-402 898,-898l0 -3646c0,-496 -402,-898 -898,-898z"/>
    <path fill="#1D9100" d="M17550 7479c-496,0 -898,402 -898,898l0 3646c0,496 402,898 898,898 495,0 897,-402 897,-898l0 -3646c0,-496 -402,-898 -897,-898z"/>
    <path fill="#1D9100" d="M8465 7036l7421 0c193,0 338,-178 298,-368 -246,-1170 -990,-2156 -2001,-2725l634 -1145c43,-77 15,-175 -62,-218 -78,-43 -175,-15 -218,63l-639 1153c-524,-243 -1107,-378 -1723,-378 -615,0 -1198,135 -1722,378l-639 -1153c-43,-78 -141,-106 -218,-63 -78,43 -106,141 -63,218l635 1145c-1011,569 -1756,1555 -2001,2725 -40,190 104,368 298,368zm5925 -1706c0,191 -155,345 -345,345 -191,0 -345,-154 -345,-345 0,-190 154,-345 345,-345 190,0 345,155 345,345zm-4084 -345c191,0 345,155 345,345 0,191 -154,345 -345,345 -190,0 -345,-154 -345,-345 0,-190 154,-345 345,-345z"/>
    <path fill="#FEFEFE" d="M24782 5116c2705,0 4897,2192 4897,4897 0,2704 -2192,4896 -4897,4896 -2704,0 -4896,-2192 -4896,-4896 0,-2705 2192,-4897 4896,-4897z"/>
    <path fill="#FFAE00" d="M24782 5116c2705,0 4897,2192 4897,4897 0,2704 -2192,4896 -4897,4896 -2704,0 -4896,-2192 -4896,-4896 0,-2705 2192,-4897 4896,-4897zm-1761 6110l986 -120c31,253 115,445 253,579 137,133 302,200 497,200 208,0 384,-80 527,-240 143,-159 214,-374 214,-646 0,-256 -68,-460 -205,-610 -137,-149 -304,-224 -502,-224 -130,0 -284,25 -465,76l113 -826c274,8 483,-53 628,-180 144,-126 216,-295 216,-507 0,-179 -53,-321 -159,-429 -107,-106 -248,-159 -424,-159 -175,0 -323,60 -445,181 -124,122 -198,298 -225,531l-935 -160c66,-324 163,-582 296,-776 131,-193 315,-345 550,-456 235,-110 499,-166 791,-166 499,0 900,160 1201,480 249,262 374,559 374,889 0,467 -255,842 -766,1120 305,65 547,211 730,438 181,228 273,502 273,824 0,466 -171,864 -511,1192 -339,329 -762,494 -1269,494 -480,0 -878,-139 -1193,-417 -316,-277 -499,-639 -550,-1088z"/>
   </g>
   <path fill="#373435" fill-opacity="0.031373" d="M2082 17547c68,104 112,203 155,312 32,64 49,183 199,183 44,0 107,-14 163,-45 63,-33 111,-83 136,-159l60 -202 146 -72 10 10c-20,77 -25,149 -25,206 0,170 146,234 262,234 68,0 129,-34 129,-95 0,-81 -34,-217 -78,-339 68,-68 136,-136 214,-191l12 6c34,144 53,287 53,381 0,93 -41,196 -75,264 -70,132 -194,238 -344,238 -114,0 -241,-58 -328,-163l-5 0c-82,101 -209,193 -412,193l-63 0c-10,134 -39,229 -83,314 -121,237 -480,404 -818,404 -470,0 -706,-272 -706,-633 0,-223 73,-431 185,-578l92 38c-70,134 -117,262 -117,385 0,338 275,499 592,499 294,0 658,-187 724,-404 -25,-237 -114,-348 -250,-565 41,-72 94,-144 160,-221l12 0zm5421 -1274c99,62 196,136 291,221 -53,74 -119,142 -201,202 -95,-77 -190,-143 -287,-213 66,-74 131,-146 197,-210zm51 926c-160,0 -291,105 -291,183 0,168 320,219 703,217 -48,-196 -216,-400 -412,-400zm-359 895c208,0 390,-6 529,-41 155,-39 286,-118 286,-171 0,-15 0,-31 -5,-46 -87,8 -187,8 -274,8 -282,0 -498,-64 -583,-222 -21,-44 -36,-93 -36,-149 0,-152 66,-303 182,-406 97,-85 204,-138 313,-138 197,0 354,158 464,408 60,136 101,293 101,491 0,132 -36,243 -118,326 -153,148 -435,204 -867,204l-196 0 0 0 -51 0c-107,0 -184,-19 -245,-66l-10 0c3,25 5,50 5,72 0,97 -32,221 -97,320 -192,287 -400,410 -580,410 -182,0 -405,-70 -606,-161l36 -70c65,27 155,46 279,46 325,0 752,-314 805,-619 -12,-25 -34,-58 -65,-93 -95,-113 -155,-208 -211,-307 48,-95 92,-171 133,-239l17 -2c139,282 265,445 546,445l44 0 0 0 204 0zm-1408 299c24,-130 26,-276 26,-413l0 -202c0,-377 -48,-926 -87,-1282 68,-75 163,-161 238,-219l22 6c51,450 63,972 63,1452 0,126 -5,250 -17,340 -7,114 -73,201 -214,332l-31 -14zm-1449 -596c7,177 94,318 398,318 189,0 349,-50 526,-135 32,-14 49,-33 49,-49 0,-111 -85,-258 -228,-392 -139,-126 -323,-237 -495,-311 -59,-25 -78,-52 -78,-77 0,-51 68,-158 124,-235l19 -2c197,103 417,256 580,427 148,157 240,316 240,489 0,128 -39,250 -102,361 -216,109 -446,192 -674,192 -277,0 -466,-130 -466,-436 0,-33 0,-84 12,-150l95 0zm-501 -503l172 278c63,103 122,215 122,392l0 227c0,183 -117,379 -306,573 -148,132 -279,188 -400,188 -180,0 -386,-56 -624,-159l27 -70c75,21 162,37 269,37 342,-2 692,-252 852,-557 19,-35 26,-68 26,-90 0,-36 -19,-75 -34,-110 -87,-165 -184,-315 -291,-453 56,-89 112,-174 173,-258l14 2z"/>
  </g>
 </g>
</svg>
