<?xml version="1.0" encoding="UTF-8"?>
<!DOCTYPE svg PUBLIC "-//W3C//DTD SVG 1.0//EN" "http://www.w3.org/TR/2001/REC-SVG-20010904/DTD/svg10.dtd">
<!-- Creator: CorelDRAW 2017 -->
<svg xmlns="http://www.w3.org/2000/svg" xml:space="preserve" width="355px" height="200px" version="1.0" shape-rendering="geometricPrecision" text-rendering="geometricPrecision" image-rendering="optimizeQuality" fill-rule="evenodd" clip-rule="evenodd"
viewBox="0 0 35509 19937"
 xmlns:xlink="http://www.w3.org/1999/xlink">
 <g id="Layer_x0020_1">
  <metadata id="CorelCorpID_0Corel-Layer"/>
  <g id="_3018798643760">
   <path fill="#E6E7E8" d="M0 0l35509 0 0 19937 -35509 0 0 -19937z"/>
   <path fill="#373435" fill-opacity="0.078431" d="M18830 19937l28 0 546 0 73 0 49 0 68 0 52 0 359 0 40 0 535 0 1066 0 749 0 277 0 963 0 452 0 700 0 1619 0 6 0 3008 -3791 -17 19 -19 18 -24 17 -26 15 -29 15 -32 12 -36 12 -38 10 -41 10 -45 8 -48 7 -54 6 -60 5 -65 4 -70 3 -77 2 -82 2 -87 0 -93 0 -86 -2 -79 -2 -73 -3 -67 -4 -60 -5 -53 -6 -47 -7 -42 -8 -39 -10 -36 -10 -33 -12 -29 -12 -26 -15 -23 -15 -19 -17 -18 -18 -14 -19 -13 -21 -10 -23 -8 -24 -6 -25 -3 -27 -1 -29 0 -604 -120 121 -123 115 -127 108 -132 101 -136 93 -139 87 -144 80 -148 73 -76 34 -76 32 -77 29 -79 28 -79 25 -81 22 -82 21 -82 19 -84 16 -85 14 -86 12 -87 10 -88 8 -89 5 -32 1 1918 -2418 0 -349 3195 -4027 -235 -72 -235 -71 -235 -71 -234 -71 -235 -71 -235 -71 -235 -71 -235 -71 -235 -71 -234 -72 -5 -1 1093 -1377 38 -54 26 -64 13 -72 -1 -59 -11 -59 -23 -56 -33 -52 -43 -46 -52 -37 -62 -26 -72 -14 -90 10 1499 -1890 -32 39 -36 36 -35 31 -27 26 -34 33 -33 33 -34 32 -33 32 -33 32 -33 32 -33 32 -33 33 -35 33 -63 61 -83 79 -91 89 -91 87 -79 78 -59 60 -27 30 -2110 2660 -183 -55 -234 -71 -235 -71 -235 -71 -235 -71 -235 -72 -235 -71 -234 -71 -235 -71 -235 -71 -235 -71 -192 -58 1060 -1336 74 -97 35 -117 -4 -121 -47 -112 -91 -86 -139 -46 -145 11 -110 61 -1301 1640 -79 -24 -225 -68 2111 -2660 -3 -23 -7 -39 -10 -50 -12 -57 -12 -57 -12 -53 -10 -45 -7 -30 -9 -45 -10 -45 -10 -45 -9 -45 -10 -46 -10 -45 -10 -46 -10 -46 -10 -45 -9 -45 -10 -44 -10 -44 -9 -45 -10 -44 -9 -45 -10 -45 -9 -41 -12 -48 -10 -51 -6 -52 4 -47 15 -41 -8245 10395 -697 0 1425 -1796 0 -5057 -18 0 -4690 5913 -1 -68 0 -68 1 -65 1 -63 1 -60 1 -58 2 -55 3 -54 3 -51 3 -50 5 -48 4 -47 5 -47 6 -44 6 -44 7 -42 7 -41 8 -40 9 -40 10 -39 10 -39 11 -38 12 -38 12 -37 13 -38 14 -36 16 -37 16 -37 17 -38 19 -38 19 -39 20 -40 21 -40 3421 -6034 12 -18 14 -18 -8670 10931 -73 -17 -82 -22 -81 -25 -80 -28 -78 -30 -50 -21 1698 -2141 56 -75 53 -79 50 -83 45 -86 42 -90 40 -92 36 -96 33 -98 30 -101 26 -104 24 -106 19 -108 17 -108 15 -109 12 -108 9 -109 7 -108 4 -108 1 -108 -1 -121 -3 -119 -6 -118 -8 -117 -10 -117 -12 -115 -15 -113 -18 -113 -19 -112 -22 -108 -27 -105 -29 -101 -33 -98 -37 -95 -39 -92 -43 -89 -47 -84 -50 -81 -53 -76 -57 -72 -60 -67 -63 -63 -66 -58 -70 -54 -73 -49 -78 -42 -83 -36 -88 -30 -92 -22 -98 -17 -102 -10 -106 -3 -53 1 -52 3 -52 5 -52 6 -52 8 -52 10 -52 12 -51 13 -51 17 -52 19 -52 22 -52 25 -53 27 -53 30 -54 32 -54 35 -55 37 -55 40 -55 43 -56 45 -56 48 -57 50 -57 53 -57 56 -58 59 -59 63 -59 66 -60 69 -61 73 -62 76 -63 80 -2208 2784 0 -8860 0 -21 3 -21 4 -20 6 -19 7 -19 9 -18 11 -18 12 -18 -4853 6118 0 8949 0 45 0 213 241 0 1256 0 325 0 234 0 328 0 442 0 461 0 208 0 68 0 1139 0 116 0 221 0 30 0 556 0 3 0 8 0 1358 0 99 0 455 0 332 0 37 0 17 0 719 0 268 0 3025 0 696 0 129 0 86 0 26 0 192 0 167 0 129 0 238 0 353 0 291 0 62 0 23 0 199 0 630 0 33 0 175 0 80 0 78 0 1073 0 183 0 301 0 16 0 42 0 34 0 1219 0 143 0 96 0 21 0 61 0 26 0 82 0z"/>
   <g>
    <path fill="#14B0A9" fill-rule="nonzero" d="M12439 12068c0,674 -73,1281 -221,1822 -148,538 -360,997 -637,1378 -279,380 -622,671 -1026,877 -406,204 -866,305 -1380,305 -256,0 -494,-23 -715,-72 -221,-47 -433,-125 -634,-233 -203,-110 -401,-244 -596,-410 -194,-165 -395,-363 -598,-595l0 828c0,64 -18,116 -47,160 -32,41 -84,78 -154,108 -72,26 -166,46 -285,58 -119,11 -264,17 -436,17 -174,0 -319,-6 -436,-17 -119,-12 -212,-32 -282,-58 -72,-30 -122,-65 -148,-108 -29,-44 -43,-96 -43,-157l0 -11205c0,-58 17,-107 52,-154 32,-43 90,-84 174,-113 82,-32 192,-55 326,-73 136,-17 311,-26 520,-26 209,0 384,9 520,26 134,18 245,41 326,73 84,29 142,70 174,113 35,47 53,99 53,154l0 4203c191,-192 386,-357 578,-494 192,-137 387,-247 578,-337 192,-87 390,-151 596,-192 204,-38 419,-58 645,-58 561,0 1038,113 1430,337 390,224 710,526 957,907 247,378 427,823 540,1331 114,509 169,1044 169,1605zm-2215 148c0,-323 -23,-634 -73,-933 -46,-302 -130,-567 -249,-800 -120,-232 -277,-418 -466,-555 -188,-139 -430,-209 -720,-209 -140,0 -279,20 -416,58 -137,41 -276,111 -421,207 -146,95 -294,220 -448,372 -154,154 -314,343 -485,569l0 2520c302,384 590,675 863,875 276,201 564,299 866,299 276,0 514,-69 706,-212 192,-142 355,-325 483,-552 125,-227 218,-485 276,-773 55,-288 84,-579 84,-866zm11347 869c0,290 -29,511 -90,663 -58,151 -140,226 -241,226l-977 0 0 1997c0,55 -17,105 -52,148 -32,44 -93,79 -177,108 -88,26 -198,49 -335,64 -136,14 -314,20 -529,20 -206,0 -378,-6 -517,-20 -140,-15 -253,-38 -334,-64 -82,-29 -140,-64 -172,-108 -32,-43 -46,-93 -46,-148l0 -1997 -4215 0c-78,0 -151,-9 -212,-29 -64,-20 -116,-67 -160,-136 -40,-73 -72,-175 -93,-309 -20,-133 -29,-311 -29,-534 0,-183 3,-340 12,-474 9,-134 23,-256 43,-363 21,-108 50,-210 85,-309 38,-95 84,-197 142,-305l3421 -6034c29,-49 79,-93 145,-130 70,-38 163,-67 285,-93 122,-27 279,-44 465,-56 186,-11 416,-17 680,-17 291,0 541,6 744,20 207,15 372,38 495,70 122,29 212,70 270,113 55,47 84,99 84,163l0 6627 977 0c90,0 168,70 232,209 67,140 99,372 99,698zm-3470 -5964l-18 0 -2895 5057 2913 0 0 -5057zm11367 8876c0,79 -29,140 -84,186 -58,47 -148,79 -271,99 -122,20 -302,29 -543,29 -256,0 -442,-9 -558,-29 -116,-20 -201,-52 -247,-99 -50,-46 -73,-107 -73,-186l0 -604c-314,334 -668,593 -1069,778 -399,187 -843,279 -1332,279 -401,0 -773,-52 -1110,-156 -337,-105 -628,-262 -875,-468 -247,-210 -439,-465 -575,-771 -137,-308 -204,-665 -204,-1072 0,-445 87,-828 259,-1154 174,-328 433,-596 776,-811 343,-212 767,-369 1279,-471 509,-101 1101,-154 1776,-154l741 0 0 -459c0,-238 -23,-448 -73,-628 -46,-177 -128,-328 -238,-447 -111,-120 -256,-207 -442,-265 -183,-55 -413,-84 -683,-84 -357,0 -677,41 -956,119 -282,78 -529,169 -744,265 -215,95 -395,185 -541,264 -145,79 -261,119 -352,119 -63,0 -119,-20 -165,-58 -50,-41 -90,-99 -119,-172 -32,-72 -56,-165 -73,-273 -17,-107 -26,-226 -26,-354 0,-178 14,-317 43,-419 27,-102 82,-192 160,-276 82,-81 218,-171 419,-270 197,-99 430,-192 697,-276 268,-88 558,-157 872,-210 317,-55 643,-81 977,-81 596,0 1104,58 1529,174 421,117 770,297 1040,538 273,241 474,552 599,933 125,378 186,831 186,1352l0 5112zm-2110 -3261l-817 0c-346,0 -639,26 -883,76 -245,52 -442,127 -596,232 -154,102 -265,224 -335,369 -72,146 -107,311 -107,497 0,320 102,570 302,750 201,183 480,273 837,273 300,0 576,-75 829,-229 253,-154 508,-378 770,-675l0 -1293z"/>
    <g>
     <path fill="#2B9900" d="M29073 7024c203,16 309,194 297,349 -15,205 -196,319 -357,303 -425,-41 -380,-687 60,-652zm-3460 -1051c435,54 342,703 -79,651 -432,-53 -353,-704 79,-651zm4260 427c-101,-127 -198,-222 -315,-348 23,-36 483,-473 528,-517 88,-87 176,-169 266,-259 58,-59 251,-192 116,-304 -66,-55 -134,-28 -175,11l-661 642c-88,83 -173,175 -261,253 -46,-30 -106,-86 -155,-125 -158,-124 -341,-244 -517,-344 -650,-369 -1443,-568 -2188,-544l-395 27c-31,-116 -50,-241 -79,-361l-156 -726c-13,-57 -24,-123 -39,-181 -13,-50 -63,-107 -143,-94 -162,26 -83,230 -63,329 25,121 51,237 77,357 27,124 53,242 78,363 12,58 74,318 73,354 -81,20 -157,33 -237,53 -312,77 -579,185 -856,329l-199 111c-545,324 -1018,813 -1316,1401 -61,121 -201,426 -217,550 2504,759 5009,1517 7514,2276 58,-124 108,-447 124,-586 58,-482 0,-1035 -150,-1468 -75,-216 -247,-626 -387,-826 -43,-62 -83,-126 -128,-189 -44,-63 -90,-123 -139,-184z"/>
    </g>
   </g>
   <path fill="#373435" fill-opacity="0.031373" d="M2068 17507c68,103 111,202 155,311 31,63 48,183 199,183 43,0 106,-15 162,-45 63,-33 111,-83 135,-159l61 -202 145 -72 10 11c-20,76 -25,148 -25,205 0,169 146,233 262,233 68,0 128,-33 128,-95 0,-80 -34,-216 -77,-337 68,-68 135,-136 213,-191l12 6c34,144 53,286 53,380 0,93 -41,196 -75,264 -70,131 -194,236 -344,236 -113,0 -239,-57 -326,-162l-5 0c-83,101 -209,193 -412,193l-63 0c-9,134 -39,229 -82,313 -121,237 -479,403 -816,403 -470,0 -704,-271 -704,-631 0,-223 72,-430 184,-577l92 37c-71,134 -117,262 -117,385 0,338 274,498 591,498 293,0 656,-187 722,-403 -25,-237 -114,-348 -250,-564 41,-72 95,-144 160,-220l12 0zm5408 -1272c100,62 197,136 291,221 -53,74 -119,142 -201,201 -94,-76 -189,-142 -286,-212 66,-74 131,-146 196,-210zm51 924c-159,0 -290,105 -290,183 0,167 319,219 702,216 -49,-195 -216,-399 -412,-399zm-358 893c208,0 390,-6 528,-41 155,-39 285,-117 285,-171 0,-14 0,-31 -4,-45 -88,8 -187,8 -274,8 -281,0 -496,-64 -581,-222 -22,-43 -36,-93 -36,-148 0,-152 65,-303 181,-405 97,-85 204,-138 313,-138 196,0 353,158 462,407 60,136 102,292 102,490 0,131 -37,243 -119,325 -153,148 -433,204 -864,204l-196 0 0 0 -51 0c-107,0 -184,-19 -245,-66l-9 0c2,24 5,49 5,72 0,97 -32,220 -97,319 -192,286 -400,409 -579,409 -181,0 -404,-70 -605,-160l36 -70c66,27 155,45 279,45 324,0 750,-313 803,-617 -12,-25 -34,-58 -65,-93 -94,-113 -155,-208 -211,-306 49,-95 92,-171 134,-239l16 -2c138,282 264,444 545,444l44 0 0 0 203 0zm-1405 299c25,-130 27,-276 27,-412l0 -202c0,-376 -48,-923 -87,-1279 68,-75 162,-161 237,-219l22 7c51,448 63,969 63,1448 0,126 -5,249 -17,340 -7,113 -73,199 -213,331l-32 -14zm-1445 -595c7,177 94,317 397,317 189,0 348,-50 525,-134 31,-14 48,-33 48,-49 0,-111 -84,-258 -227,-391 -138,-126 -322,-237 -494,-311 -58,-25 -77,-51 -77,-76 0,-52 67,-159 123,-235l19 -2c197,103 417,255 579,426 148,157 240,315 240,488 0,127 -39,249 -102,360 -215,109 -445,191 -673,191 -276,0 -465,-129 -465,-434 0,-33 0,-84 12,-150l95 0zm-500 -502l172 278c63,102 121,214 121,391l0 226c0,183 -116,379 -305,572 -148,132 -278,187 -399,187 -179,0 -385,-55 -622,-158l26 -70c75,20 162,37 269,37 341,-2 690,-251 850,-556 19,-35 26,-68 26,-90 0,-35 -19,-74 -34,-109 -87,-165 -184,-315 -290,-453 55,-88 111,-173 172,-257l14 2z"/>
  </g>
 </g>
</svg>
