<svg xmlns="http://www.w3.org/2000/svg" xml:space="preserve" width="350" height="200" version="1" shape-rendering="geometricPrecision" text-rendering="geometricPrecision" image-rendering="optimizeQuality" fill-rule="evenodd" clip-rule="evenodd" viewBox="0 0 35000 19994"><path fill="#C2E7DA" d="M0 0h35000v19994H0z"/><path fill="#373435" fill-opacity=".149" d="M16795 13991l-97 117h1l67 30 63 35 29 21 83-99h490v641l379-453-46 57-42 60-38 63-33 66-30 68-25 71-20 73-145 174v52l530-635 138-115 159-88 176-55 191-19 191 19 177 55 158 88 138 115 114 141 85 161 35 117 378-452-43 53-40 57-36 59-33 61-30 64-26 65-22 68-124 147 7 70 494-591 145-127 168-95 188-60 15-2 597-714v320l145-175h491v1179l358-429-42 53-39 58-35 61-30 64-26 68-23 72-18 75-145 174v35l507-608 137-107 166-77 195-46 223-16v473l167-200-11 13-11 13-145 174v11l-134 161 26-6 32-5 35-3-16 47-13 48-12 48-8 40 429-514 154-125 176-95 194-59 208-21 210 21 195 59 99 53 671-804-24 33-22 36-18 38-14 39-11 41-6 43-3 44 2 41 4 24 223-267 42-35 48-26 54-17 57-6 57 6 53 17 48 26 42 35 35 42 26 49 17 53 6 58-6 57-17 54-26 48-35 43-196 235h240v636l362-434-39 47-36 50-34 53-31 54-29 56-25 57-23 60-145 174v112l506-605 145-125 168-95 188-59 9-1 603-721v320l145-175h490v2580l-122 146h267l-3149 3769H0v-4459L9747 3869l-21 29-18 31-14 32-11 33-8 34-5 35-1 36 2 35 3 24 175-209 33-33 39-28 44-19 46-9 45-1 45 9 42 16 39 25 33 32 28 39 537 970 22-10 305-103 318-75 329-47 338-15 339 15 329 47 295 70 815-976-22 29-20 32-319 575 460-551 34-32 39-25 42-16 45-9 45 1 46 9 44 19 39 28 32 33 25 39 17 42 8 45v45l-10 46-19 44-525 948 114 64 256 176 235 198 214 217 191 235 166 253 139 267 112 281 81 293 50 304 18 313-2 23 2 13v91h145l-109 131h109l-145 175v111l252-302-57 76-50 82-42 87-33 92-25 95-2 10 358-428 130-107 148-81 164-51 176-17 177 17 164 51 148 81 129 107 107 129 81 149 51 164 17 176v3095l-17 177-51 164-81 148-107 129-257 308 26-9 87-42 82-50 77-57 70-65 65-70-1808 2164-45 99-38 108-26 108 405-485 146-125 168-95 187-59 204-21 84 4 80 10 76 16 43 14 125-150v42z"/><path fill="#A4C639" d="M9921 3888c-114 64-156 208-92 322l1289 2325c63 115 207 156 321 92h1c114-63 155-207 92-321l-1289-2326c-64-114-208-155-322-92z"/><path fill="#FEFEFE" fill-rule="nonzero" d="M9984 4002c-25 14-43 37-50 64-8 26-6 55 8 81l1289 2325c15 26 38 43 64 50 27 8 56 6 81-8 26-15 43-38 51-64 7-27 5-56-9-81l-1289-2325c-14-26-37-43-64-51-26-7-55-5-81 9zm-301-8c26-90 86-170 175-220 89-49 189-58 279-32s170 86 220 175l1289 2325c49 89 58 189 32 279-26 91-87 171-175 220-89 50-189 58-279 33-90-26-171-87-220-175L9715 4273c-49-89-58-189-32-279z"/><path fill="#A4C639" d="M14264 3888c114 64 156 208 92 322l-1289 2325c-63 115-207 156-322 92-114-63-155-207-92-321l1289-2326c64-114 208-155 322-92z"/><path fill="#fff" fill-rule="nonzero" d="M14327 3774c89 49 150 130 176 220 25 90 17 190-33 279l-1294 2335c-49 84-127 141-215 166-78 23-165 19-245-15h-25l-28-28c-79-50-132-126-156-209-26-90-17-191 32-280l1289-2325c49-89 130-149 220-175s190-17 279 32zm-76 292c-8-26-25-50-51-64-25-14-54-16-80-8-26 7-50 25-64 50l-1289 2325c-14 25-16 54-8 81 7 26 25 49 50 63s54 17 81 9c26-7 49-25 63-50l1289-2326c14-25 16-54 9-80z"/><ellipse fill="#A4C639" cx="12092" cy="7759" rx="3314" ry="3059"/><path fill="#fff" fill-rule="nonzero" d="M15144 7759c0-769-338-1466-885-1971-553-510-1319-826-2167-826-847 0-1613 316-2166 826-547 505-885 1202-885 1971 0 768 338 1465 885 1970 553 511 1319 827 2166 827 848 0 1614-316 2167-827 547-505 885-1202 885-1970zm-531-2356c652 602 1056 1435 1056 2356s-404 1753-1056 2356c-646 596-1538 965-2521 965s-1874-369-2520-965c-653-603-1056-1435-1056-2356s403-1754 1056-2356c646-597 1537-966 2520-966s1875 369 2521 966z"/><path fill="#A4C639" d="M9580 6994h5025c443 0 802 359 802 801v5026c0 442-359 801-802 801H9580c-443 0-802-359-802-801V7795c0-442 359-801 802-801z"/><path fill="#fff" fill-rule="nonzero" d="M9580 6732h5025v1c295 0 560 118 752 310 193 193 312 459 312 752v5026c0 294-119 559-312 752-192 192-458 311-752 311v-1H9580c-295 0-560-118-752-310-193-193-312-458-312-752h1V7795c0-294 119-560 311-752s458-311 752-311zm5025 523v1H9580c-149 0-284 61-382 158-98 98-159 233-159 381v5026h2c0 149 60 284 157 381 99 98 233 159 382 159h5025v-1c149 0 284-60 381-158 98-97 158-232 158-381V7795c0-149-60-283-158-381s-233-159-381-159z"/><path fill="#A4C639" d="M16426 7759c-482 0-874 391-874 874v3095c0 483 392 874 874 874 483 0 874-391 874-874V8633c0-483-391-874-874-874z"/><path fill="#FEFEFE" fill-rule="nonzero" d="M16426 7879c-208 0-397 84-533 220-136 137-220 326-220 534v3095c0 209 84 397 220 533 136 137 325 221 533 221s397-84 533-221c136-136 221-324 221-533V8633c0-208-85-397-221-533-136-137-325-221-533-221zm-703 51c181-180 429-292 703-292 275 0 524 112 703 292 180 180 292 428 292 703v3095c0 275-112 524-292 703-179 181-428 292-703 292-274 0-522-111-702-292-181-180-292-429-292-703V8633c0-274 111-523 291-703z"/><path fill="#A4C639" d="M13331 11291c-483 0-874 392-874 874v3096c0 483 391 874 874 874 482 0 874-391 874-874v-3096c0-482-392-874-874-874z"/><path fill="#fff" fill-rule="nonzero" d="M13331 11423c-205 0-391 83-526 217-134 135-218 321-218 525h1-1v3096h1c0 205 83 391 217 525 135 135 321 219 526 219v-1h28c193-7 368-89 497-218 135-134 218-320 218-525v-3096c0-204-83-390-218-525-134-134-320-217-525-217zm-711 32c170-170 400-279 655-293l1-2h55c277 0 529 113 710 295 182 181 294 433 294 710v3096h1c0 278-113 529-295 711-181 181-432 294-710 294h-55l-2-2c-255-14-485-123-654-292-182-182-294-433-294-711v-3096c0-277 112-529 294-710z"/><path fill="#A4C639" d="M7759 7759c482 0 874 391 874 874v3095c0 483-392 874-874 874-483 0-874-391-874-874V8633c0-483 391-874 874-874z"/><path fill="#fff" fill-rule="nonzero" d="M7759 7628c277 0 528 112 710 294s295 433 295 711h-1v3095h1c0 278-113 529-295 711-169 169-399 278-654 292l-2 2h-54v1-1c-278 0-530-112-711-294-182-182-295-433-295-711h1V8633c0-278 112-529 294-711s433-294 711-294zm525 480c-135-135-320-218-525-218-206 0-391 83-526 218-135 134-218 320-218 525v3095h1c0 206 83 391 217 526 129 128 304 210 498 217h28v1c204 0 390-84 525-218 134-135 218-320 218-526V8633c0-205-84-391-218-525z"/><path fill="#A4C639" d="M10854 11291c483 0 874 392 874 874v3096c0 483-391 874-874 874-482 0-874-391-874-874v-3096c0-482 392-874 874-874z"/><path fill="#fff" fill-rule="nonzero" d="M10854 11423c-205 0-391 83-525 217-135 135-218 321-218 525v3096c0 205 83 391 218 525 129 129 304 211 497 218h28v1c205 0 391-84 526-219 134-134 217-320 217-525h1v-3096h-1c0-205-83-390-217-525-135-134-321-217-526-217zm56-261c255 14 485 123 655 293 182 182 294 433 294 710v3096c0 278-112 529-294 711-169 169-399 278-654 292l-2 2h-55c-278 0-529-113-711-294-181-182-294-433-294-711h1v-3096c0-277 112-529 293-710 182-182 434-295 711-295h54l2 2z"/><ellipse fill="#A4C639" cx="12092" cy="7759" rx="3314" ry="3059"/><path fill="#A4C639" d="M9580 6994h5025c443 0 802 359 802 801v5026c0 442-359 801-802 801H9580c-443 0-802-359-802-801V7795c0-442 359-801 802-801z"/><path fill="#fff" d="M8633 7886h6919-6919zm0 0z"/><path fill="#fff" fill-rule="nonzero" d="M8633 7755h6919v262H8633v-262z"/><circle fill="#fff" cx="10563" cy="6266" r="146"/><path fill="#fff" fill-rule="nonzero" d="M10577 6266c0-4-1-8-4-11-2-2-6-4-10-4s-8 2-10 4c-3 3-5 7-5 11s2 7 5 10c2 2 6 4 10 4s8-2 10-4c3-3 4-6 4-10zm182-196c50 50 81 119 81 196 0 76-31 145-81 195-51 50-120 81-196 81-77 0-146-31-196-81s-81-119-81-195c0-77 31-146 81-196s119-81 196-81c76 0 145 31 196 81z"/><circle fill="#fff" cx="13622" cy="6266" r="146"/><path fill="#fff" fill-rule="nonzero" d="M13637 6266c0-4-2-8-5-11-2-2-6-4-10-4s-8 2-10 4c-3 3-5 7-5 11s2 7 5 10c2 2 6 4 10 4s8-2 10-4c3-3 5-6 5-10zm181-196c50 50 81 119 81 196 0 76-31 145-81 195s-119 81-196 81c-76 0-146-31-196-81s-81-119-81-195c0-77 31-146 81-196s120-81 196-81c77 0 146 31 196 81z"/><path fill="#FEFEFE" fill-rule="nonzero" d="M16441 15794c-192 0-366-80-491-210-124-129-201-306-201-501 0-193 78-370 203-499 125-130 297-210 489-210 126 0 254 31 364 90 107 59 196 144 252 255 5 9 10 20 17 39 7 21 12 45 12 73v500c0 17-4 38-8 57-6 20-14 41-24 58-60 106-149 192-255 253s-230 95-358 95zm-282-412c72 75 171 121 282 121 77 0 152-20 215-57 58-32 106-78 139-132v-470c-27-52-73-95-129-125-66-36-145-54-225-54-110 0-209 46-281 121-74 76-120 181-120 297 0 118 46 223 119 299zm1126 552v-1694h-199v365l-247-240c-55-53-119-94-194-122s-161-42-258-42c-238 0-447 95-597 251-153 159-246 382-246 631 0 250 93 475 247 637 150 157 358 253 596 253 95 0 181-15 255-43 76-29 142-72 197-126l247-239v369h199zm291-1839v646c48-197 147-373 283-512 195-198 464-319 766-319s572 121 767 319c132 136 230 306 279 497 54-183 149-346 276-478 203-213 485-345 806-345 130 0 250 23 357 64l51 21v-634h781v1346c43-205 130-373 260-501 191-191 468-289 823-289h145v444c29-36 59-69 91-101 214-213 510-343 835-343 327 0 623 130 838 343 122 121 217 268 277 433v-737h76c-70-77-114-179-114-291 0-119 48-226 126-304 78-79 185-127 304-127 118 0 226 48 303 127 78 78 126 185 126 304 0 112-43 214-113 291h73v725c56-161 145-305 259-423 203-211 486-341 806-341 131 0 251 21 360 61 16 7 32 13 49 20v-637h780v2871h-780v-44c-17 8-34 15-52 22-107 41-226 63-357 63-320 0-603-132-806-345-114-120-203-265-259-427v731h-781v-744c-60 166-155 315-278 438-214 213-510 345-837 345-326 0-621-132-835-346s-346-509-346-835c0-140 25-273 69-397-96 6-167 32-213 78-52 52-79 138-79 255v1206h-1531v-45c-17 8-33 15-50 21-108 41-228 63-358 63-321 0-603-131-807-344-102-108-184-236-240-378v683h-781v-1219c0-93-32-173-86-228-51-53-126-85-214-85s-162 32-214 85c-53 55-85 135-85 228v1219h-1531v-45c-16 8-33 15-51 21-107 41-227 63-357 63-320 0-603-131-806-344-204-214-328-510-328-837 0-326 124-620 328-832 203-211 486-341 806-341 130 0 250 21 359 61 17 7 33 13 49 20v-42h781v146zm1839 1839v-928c0-226-88-428-230-573-142-144-338-232-560-232-221 0-418 88-559 231-143 146-230 348-230 574v928h199v-928c0-170 62-321 168-431 105-108 252-173 422-173s317 65 422 174c106 109 168 260 168 430v928h200zm1391-140c-191 0-365-80-490-210-124-129-201-306-201-501 0-193 77-370 202-499 125-130 298-210 489-210 125 0 248 32 355 90 106 57 196 141 257 247l5 8c4 9 10 20 16 39 7 21 13 45 13 73v502c0 17-4 38-9 56h1c-5 16-12 34-20 49-60 110-151 199-259 261-107 61-230 95-359 95zm-281-412c72 75 171 121 281 121 78 0 153-20 216-57 57-32 105-77 139-132v-468c-34-54-82-97-139-128-64-34-138-53-216-53-109 0-209 46-281 121-73 76-119 181-119 297 0 118 45 223 119 299zm1126 552v-2289h-199v960l-247-240c-56-54-122-97-199-126-74-29-159-45-253-45-238 0-446 97-596 254-154 161-247 385-247 635s93 475 247 637c149 157 358 253 596 253 95 0 180-15 254-43h1c76-29 142-72 197-126l247-239v369h199zm750 0v-915c0-196 56-351 164-460 81-80 186-132 314-154v-197c-204 20-363 87-473 196-134 134-204 341-204 615v915h199zm1695-164c-188 0-360-77-484-202-124-124-201-296-201-485s77-360 201-484c124-125 295-201 484-201 191 0 362 76 486 200 125 124 202 296 202 485 0 190-77 362-201 487-124 124-296 200-487 200zm-278-406c71 71 169 115 278 115 111 0 210-44 281-115 72-72 116-171 116-281s-44-208-115-279c-72-71-171-115-282-115-108 0-207 44-278 115-71 72-116 170-116 279 0 110 44 209 116 281zm278 609c248 0 471-99 632-260s261-383 261-630c0-245-99-466-260-625s-385-257-633-257c-246 0-470 98-630 258-161 159-260 379-260 624 0 246 100 469 260 630h1c161 161 384 260 629 260zm1507-2175c38 0 72-15 97-40 25-26 41-61 41-100s-15-75-40-100-60-40-98-40c-39 0-74 15-98 40-25 25-40 61-40 100s15 74 40 100c25 25 60 40 98 40zm98 442h-199v1694h199v-1694zm1410 1554c-192 0-365-80-491-210-124-129-200-306-200-501 0-193 77-370 202-499 125-130 298-210 489-210 125 0 247 32 354 90 107 57 197 141 258 247l2 5c7 12 14 26 19 41 7 21 12 46 12 74v504c0 19-3 40-9 58-5 18-14 38-23 53-60 106-149 192-254 253-107 61-231 95-359 95zm-282-412c72 75 172 121 282 121 78 0 152-20 216-57 57-32 105-78 139-132v-468c-34-53-82-97-140-128-63-34-138-53-215-53-110 0-209 46-281 121-74 76-119 181-119 297 0 118 45 223 118 299zm1127 552v-2289h-200v960l-246-240c-55-53-120-94-195-122-74-28-160-42-258-42-238 0-447 95-597 251-153 159-245 382-245 631 0 250 92 476 246 638 150 157 359 254 596 254 95 0 179-15 254-44 76-29 143-72 199-127l246-239v369h200z"/><path fill="#A4C639" fill-rule="nonzero" d="M16441 15648c-302 0-546-252-546-565 0-308 244-564 546-564 200 0 401 94 486 264 6 12 14 28 14 48v500c0 10-6 32-10 38-94 170-284 279-490 279zm990 431v-1984h-490v166c-137-133-324-206-554-206-562 0-988 456-988 1028 0 574 426 1036 988 1036 230 0 417-78 554-211v171h490zm2129 0v-1073c0-528-411-951-935-951-525 0-934 423-934 951v1073h490v-1073c0-260 183-459 444-459 260 0 445 199 445 459v1073h490zm1246-431c-301 0-545-252-545-565 0-308 244-564 545-564 201 0 391 100 487 264 6 12 13 28 13 48v502c0 10-6 30-9 36-94 170-284 279-491 279zm991 431v-2580h-491v762c-136-133-323-212-553-212-562 0-988 462-988 1034 0 574 426 1036 988 1036 230 0 417-78 553-211v171h491zm750 0v-1060c0-313 164-480 478-480v-484c-631 0-968 335-968 964v1060h490zm1549-454c-297 0-539-242-539-542 0-298 242-540 539-540 302 0 542 242 542 540 0 300-240 542-542 542zm0 494c574 0 1038-462 1038-1036 0-572-464-1028-1038-1028-571 0-1035 456-1035 1028 0 574 464 1036 1035 1036zm1507-2175c156 0 284-129 284-286 0-159-128-286-284-286-157 0-284 127-284 286 0 157 127 286 284 286zm244 151h-491v1984h491v-1984zm1264 1553c-302 0-546-252-546-565 0-308 244-564 546-564 200 0 391 100 486 264 6 12 14 28 14 48v504c0 10-6 28-10 34-93 170-284 279-490 279zm990 431v-2580h-490v762c-137-133-324-206-554-206-561 0-988 456-988 1028 0 574 427 1038 988 1038 230 0 417-80 554-213v171h490z"/></svg>