<?xml version="1.0" encoding="UTF-8"?>
<!DOCTYPE svg PUBLIC "-//W3C//DTD SVG 1.0//EN" "http://www.w3.org/TR/2001/REC-SVG-20010904/DTD/svg10.dtd">
<!-- Creator: CorelDRAW 2017 -->
<svg xmlns="http://www.w3.org/2000/svg" xml:space="preserve" width="356px" height="200px" version="1.0" shape-rendering="geometricPrecision" text-rendering="geometricPrecision" image-rendering="optimizeQuality" fill-rule="evenodd" clip-rule="evenodd"
viewBox="0 0 35600 20025"
 xmlns:xlink="http://www.w3.org/1999/xlink">
 <g id="Layer_x0020_1">
  <metadata id="CorelCorpID_0Corel-Layer"/>
  <g id="_2226515233536">
   <path fill="#373435" fill-opacity="0.600000" d="M0 0l35600 0 0 505 -35600 0 0 -505z"/>
   <path fill="#E6E7E8" d="M0 0l35600 0 0 20025 -35600 0 0 -20025z"/>
   <path fill="#373435" fill-opacity="0.078431" d="M17123 20025l1102 0 2629 0 7299 -6234 -185 145 -192 136 -199 128 -205 118 -211 108 -217 98 -222 88 -228 77 -232 66 -237 54 -241 43 -245 31 -249 19 -252 7 -252 -7 -248 -19 -245 -31 -9 -1 2538 -2168 0 -942 -2025 0 21 -35 22 -35 24 -35 25 -35 27 -36 29 -35 30 -36 31 -36 38 -42 49 -50 59 -60 71 -69 82 -78 93 -87 105 -97 115 -106 116 -107 107 -101 97 -95 89 -88 78 -82 70 -75 60 -69 51 -63 67 -88 63 -88 58 -86 54 -86 48 -84 44 -83 39 -83 35 -81 30 -83 26 -83 22 -84 18 -85 14 -86 10 -87 6 -88 2 -89 -7 -155 -21 -149 -35 -141 -49 -136 -63 -129 -77 -122 -91 -116 -106 -109 -117 -100 -129 -86 -138 -73 -150 -60 -159 -47 -171 -33 -180 -20 -192 -6 -175 5 -168 17 -161 29 -153 40 -146 52 -138 63 -131 74 -123 85 -3720 3178 -23 -128 -31 -245 -19 -248 -7 -252 7 -252 19 -249 31 -245 43 -241 54 -237 66 -232 77 -228 88 -222 98 -217 108 -211 118 -205 128 -199 136 -192 145 -185 154 -178 162 -170 170 -162 178 -154 -5016 4285 0 -2142 18 -181 52 -168 83 -153 110 -133 -7831 6688 -680 0 -62 -6 -57 -17 -51 -29 -46 -37 -37 -45 -28 -52 -18 -57 -6 -61 0 -344 7977 -6812 -56 35 -64 23 -70 8 -3309 0 1712 -1462 42 -51 31 -58 21 -65 7 -70 -7 -69 -21 -65 -31 -59 -42 -51 -52 -42 -58 -32 -65 -20 -69 -7 -70 7 -65 20 -58 32 -51 42 -2283 1950 -1414 0 3794 -3240 639 -1153 18 -27 23 -22 -5200 4442 -539 0 1711 -1462 42 -51 32 -58 20 -65 7 -70 -7 -69 -20 -65 -32 -59 -42 -51 -51 -42 -59 -32 -64 -20 -70 -7 -69 7 -65 20 -59 32 -51 42 -1899 1622 4 -40 52 -217 63 -212 74 -208 85 -202 95 -196 105 -191 115 -184 124 -178 89 -113 1199 -1024 -635 -1145 -12 -29 -7 -31 0 -31 6 -31 11 -28 16 -26 22 -23 -9825 8392 0 168 0 1587 0 100 0 397 0 410 0 209 0 37 0 108 0 478 0 161 0 137 0 21 0 118 0 342 0 13 0 608 0 1207 0 108 0 100 0 539 0 158 0 967 0 279 0 782 934 0 112 0 403 0 660 0 681 0 480 0 188 0 1795 0 525 0 181 0 550 0 1030 0 369 0 327 0 69 0 706 0 478 0 33 0 150 0 111 0 33 0 1144 0 10 0 317 0 217 0 519 0 2360 0 388 0 128 0 77 0 123 0 2025 0z"/>
   <path fill="#E6D174" d="M25038 5117c2705,0 4897,2192 4897,4896 0,2704 -2192,4896 -4897,4896 -2704,0 -4896,-2192 -4896,-4896 0,-2704 2192,-4896 4896,-4896z"/>
   <ellipse fill="#FEFEFE" cx="14545" cy="5350" rx="630" ry="631"/>
   <ellipse fill="#FEFEFE" cx="10581" cy="5350" rx="630" ry="631"/>
   <path fill="#6FB000" d="M16221 7481l-7561 0c-168,0 -305,136 -305,304l0 6341c0,168 137,305 305,305l1348 0 0 2136c0,496 402,898 897,898 496,0 898,-402 898,-898l0 -2136 1256 0 0 2136c0,496 402,898 897,898 496,0 898,-402 898,-898l0 -2136 1367 0c168,0 304,-137 304,-305l0 -6341c0,-168 -136,-304 -304,-304zm-7500 -445l7421 0c193,0 338,-178 298,-368 -245,-1169 -990,-2155 -2001,-2725l634 -1144c43,-78 15,-176 -62,-218 -78,-44 -175,-15 -218,62l-639 1153c-524,-243 -1107,-378 -1723,-378 -615,0 -1198,135 -1722,378l-639 -1153c-43,-78 -141,-105 -218,-63 -77,43 -106,141 -63,218l635 1145c-1011,570 -1756,1556 -2001,2725 -40,190 104,368 298,368zm5925 -1706c0,191 -155,346 -345,346 -191,0 -345,-155 -345,-346 0,-190 154,-344 345,-344 190,0 345,154 345,344zm-4084 -344c191,0 345,154 345,344 0,191 -154,346 -345,346 -190,0 -345,-155 -345,-346 0,-190 154,-344 345,-344zm7244 2493c-496,0 -898,402 -898,898l0 3646c0,496 402,898 898,898 495,0 897,-402 897,-898l0 -3646c0,-496 -402,-898 -897,-898zm-10731 0c-495,0 -897,402 -897,898l0 3646c0,496 401,898 897,898 496,0 898,-402 898,-898l0 -3646c0,-496 -402,-898 -898,-898z"/>
   <path fill="#FEFEFE" d="M26822 11741l0 942 -3567 0c38,-359 154,-698 347,-1018 193,-320 575,-745 1144,-1275 458,-428 739,-718 843,-870 139,-211 210,-418 210,-625 0,-227 -61,-402 -183,-524 -121,-122 -290,-183 -503,-183 -213,0 -381,65 -507,193 -125,127 -197,340 -217,638l-1016 -101c61,-562 250,-965 569,-1209 319,-244 717,-366 1195,-366 524,0 936,142 1236,425 300,283 449,635 449,1057 0,240 -43,467 -128,685 -86,216 -222,442 -408,679 -123,159 -346,385 -668,680 -322,296 -526,491 -612,589 -86,96 -155,191 -209,283l2025 0z"/>
   <path fill="#373435" fill-opacity="0.031373" d="M2082 17547c68,104 112,203 155,312 32,64 49,183 199,183 44,0 107,-14 163,-45 63,-33 111,-83 136,-159l60 -202 146 -72 10 10c-20,77 -25,149 -25,206 0,170 146,234 262,234 68,0 129,-34 129,-95 0,-81 -34,-217 -78,-339 68,-68 136,-136 214,-191l12 6c34,144 53,287 53,381 0,93 -41,196 -75,264 -70,132 -194,238 -344,238 -114,0 -241,-58 -328,-163l-5 0c-82,101 -209,193 -412,193l-63 0c-10,134 -39,229 -83,314 -121,237 -480,404 -818,404 -470,0 -706,-272 -706,-633 0,-223 73,-431 185,-578l92 38c-70,134 -117,262 -117,385 0,338 275,499 592,499 294,0 658,-187 724,-404 -25,-237 -114,-348 -250,-565 41,-72 94,-144 160,-221l12 0zm5421 -1274c99,62 196,136 291,221 -53,74 -119,142 -201,202 -95,-77 -190,-143 -287,-213 66,-74 131,-146 197,-210zm51 926c-160,0 -291,105 -291,183 0,168 320,219 703,217 -48,-196 -216,-400 -412,-400zm-359 895c208,0 390,-6 529,-41 155,-39 286,-118 286,-171 0,-15 0,-31 -5,-46 -87,8 -187,8 -274,8 -282,0 -498,-64 -583,-222 -21,-44 -36,-93 -36,-149 0,-152 66,-303 182,-406 97,-85 204,-138 313,-138 197,0 354,158 464,408 60,136 101,293 101,491 0,132 -36,243 -118,326 -153,148 -435,204 -867,204l-196 0 0 0 -51 0c-107,0 -184,-19 -245,-66l-10 0c3,25 5,50 5,72 0,97 -32,221 -97,320 -192,287 -400,410 -580,410 -182,0 -405,-70 -606,-161l36 -70c65,27 155,46 279,46 325,0 752,-314 805,-619 -12,-25 -34,-58 -65,-93 -95,-113 -155,-208 -211,-307 48,-95 92,-171 133,-239l17 -2c139,282 265,445 546,445l44 0 0 0 204 0zm-1408 299c24,-130 26,-276 26,-413l0 -202c0,-377 -48,-926 -87,-1282 68,-75 163,-161 238,-219l22 6c51,450 63,972 63,1452 0,126 -5,250 -17,340 -7,114 -73,201 -214,332l-31 -14zm-1449 -596c7,177 94,318 398,318 189,0 349,-50 526,-135 32,-14 49,-33 49,-49 0,-111 -85,-258 -228,-392 -139,-126 -323,-237 -495,-311 -59,-25 -78,-52 -78,-77 0,-51 68,-158 124,-235l19 -2c197,103 417,256 580,427 148,157 240,316 240,489 0,128 -39,250 -102,361 -216,109 -446,192 -674,192 -277,0 -466,-130 -466,-436 0,-33 0,-84 12,-150l95 0zm-501 -503l172 278c63,103 122,215 122,392l0 227c0,183 -117,379 -306,573 -148,132 -279,188 -400,188 -180,0 -386,-56 -624,-159l27 -70c75,21 162,37 269,37 342,-2 692,-252 852,-557 19,-35 26,-68 26,-90 0,-36 -19,-75 -34,-110 -87,-165 -184,-315 -291,-453 56,-89 112,-174 173,-258l14 2z"/>
  </g>
 </g>
</svg>
