<?xml version="1.0" encoding="utf-8"?>
<!-- Generator: Adobe Illustrator 21.0.0, SVG Export Plug-In . SVG Version: 6.00 Build 0)  -->
<svg version="1.1" xmlns="http://www.w3.org/2000/svg" xmlns:xlink="http://www.w3.org/1999/xlink" x="0px" y="0px"
	 viewBox="0 0 800 600" style="enable-background:new 0 0 800 600;" xml:space="preserve">
<style type="text/css">
	.st0{fill:#FCFCFC;}
	.st1{fill:#F7F7F7;}
	.st2{fill:#F9F9F9;}
	.st3{fill:none;stroke:#E7E7E7;stroke-width:3;stroke-linecap:round;stroke-linejoin:round;stroke-miterlimit:10;}
	.st4{fill:none;stroke:#E7E7E7;stroke-width:1.5;stroke-linecap:round;stroke-linejoin:round;stroke-miterlimit:10;}
	.st5{fill:none;stroke:#E7E7E7;stroke-width:1.5;stroke-linejoin:round;stroke-miterlimit:10;}
	.st6{fill:#B67DBC;}
	.st7{fill:#AA7D5E;}
	.st8{fill:#E7E7E7;}
	.st9{fill:#E26969;}
	.st10{fill:#777777;}
	.st11{fill:#555555;}
	.st12{fill:#78D8D3;}
	.st13{opacity:0.25;}
	.st14{opacity:0.25;fill:#FFFFFF;}
	.st15{fill:#FFFFFF;}
	.st16{fill:none;stroke:#333333;stroke-width:4;stroke-linecap:round;stroke-linejoin:round;stroke-miterlimit:10;}
	.st17{fill:none;stroke:#333333;stroke-width:2;stroke-linecap:round;stroke-linejoin:round;stroke-miterlimit:10;}
	.st18{opacity:0.5;fill:none;stroke:#333333;stroke-width:2;stroke-linecap:round;stroke-linejoin:round;stroke-miterlimit:10;}
	.st19{fill:none;stroke:#333333;stroke-width:2;stroke-linejoin:round;stroke-miterlimit:10;}
</style>
<g id="background_1_">
	<g id="colors">
		<polygon class="st0" points="354.1,160.1 354.1,166.1 334.1,166.1 330.1,166.1 326.1,166.1 306.1,166.1 306.1,160.1 		"/>
		<path class="st1" d="M330.1,166.1h4v4c0,2.2-1.8,4-4,4c-2.2,0-4-1.8-4-4v-4H330.1z"/>
		<path class="st1" d="M354.1,166.1v14h-48v-14h20v4c0,2.2,1.8,4,4,4c2.2,0,4-1.8,4-4v-4H354.1z"/>
		<path class="st0" d="M421.1,151.1v5h-1h-6h-10h-6h-7c-5,0-9-4-9-9s4-9,9-9h30v5h-4h-26c-2.2,0-4,1.8-4,4c0,2.2,1.8,4,4,4h26H421.1
			z"/>
		<path class="st1" d="M417.1,147.6v3.5h-26c-2.2,0-4-1.8-4-4c0-2.2,1.8-4,4-4h26V147.6z"/>
		<rect x="414.1" y="156.1" class="st0" width="6" height="24"/>
		<polygon class="st1" points="421.1,156.1 430.1,156.1 430.1,180.1 420.1,180.1 420.1,156.1 		"/>
		<polygon class="st1" points="445.1,166.1 445.1,180.1 436.1,180.1 436.1,156.1 445.1,156.1 		"/>
		<rect x="430.1" y="156.1" class="st0" width="6" height="24"/>
		<rect x="382.1" y="156.1" class="st0" width="6" height="24"/>
		<rect x="398.1" y="156.1" class="st0" width="6" height="24"/>
		<rect x="373.1" y="156.1" class="st1" width="9" height="24"/>
		<rect x="404.1" y="156.1" class="st1" width="10" height="24"/>
		<polygon class="st1" points="398.1,156.1 398.1,180.1 388.1,180.1 388.1,156.1 391.1,156.1 		"/>
		<rect x="445.1" y="166.1" class="st1" width="20" height="14"/>
		<polygon class="st1" points="465.1,162.1 465.1,166.1 445.1,166.1 445.1,156.1 445.1,122.1 465.1,122.1 465.1,126.1 465.1,132.1 
			465.1,156.1 		"/>
		<polygon class="st1" points="465.1,108.1 465.1,122.1 445.1,122.1 445.1,100.1 465.1,100.1 		"/>
		<circle class="st1" cx="477.1" cy="144.1" r="4"/>
		<polygon class="st1" points="489.1,108.1 489.1,126.1 465.1,126.1 465.1,122.1 465.1,108.1 		"/>
		<rect x="465.1" y="156.1" class="st0" width="24" height="6"/>
		<rect x="465.1" y="126.1" class="st0" width="24" height="6"/>
		<polygon class="st1" points="489.1,162.1 489.1,180.1 465.1,180.1 465.1,166.1 465.1,162.1 		"/>
		<path class="st1" d="M489.1,132.1v24h-24v-24H489.1z M481.1,144.1c0-2.2-1.8-4-4-4c-2.2,0-4,1.8-4,4c0,2.2,1.8,4,4,4
			C479.3,148.1,481.1,146.3,481.1,144.1z"/>
		<path class="st2" d="M514.1,198.1v10c0,5-4,9-9,9s-9-4-9-9v-10H514.1z M508.1,208.1c0-1.7-1.3-3-3-3s-3,1.3-3,3s1.3,3,3,3
			S508.1,209.8,508.1,208.1z"/>
		<rect x="496.1" y="192.1" class="st1" width="18" height="6"/>
		<polygon class="st2" points="524.1,188.1 524.1,192.1 514.1,192.1 496.1,192.1 312.1,192.1 294.1,192.1 284.1,192.1 284.1,188.1 
			284.1,185.1 284.1,180.1 306.1,180.1 354.1,180.1 373.1,180.1 382.1,180.1 388.1,180.1 398.1,180.1 404.1,180.1 414.1,180.1 
			420.1,180.1 430.1,180.1 436.1,180.1 445.1,180.1 465.1,180.1 489.1,180.1 524.1,180.1 		"/>
		<rect x="294.1" y="192.1" class="st1" width="18" height="6"/>
		<path class="st2" d="M312.1,198.1v10c0,5-4,9-9,9s-9-4-9-9v-10H312.1z M306.1,208.1c0-1.7-1.3-3-3-3s-3,1.3-3,3s1.3,3,3,3
			S306.1,209.8,306.1,208.1z"/>
	</g>
	<g id="lines_1_">
		<rect x="284.1" y="180.1" class="st3" width="240" height="12"/>
		<rect x="294.1" y="192.1" class="st3" width="18" height="6"/>
		<path class="st3" d="M294.1,208.1c0,5,4,9,9,9s9-4,9-9"/>
		<line class="st3" x1="312.1" y1="208.1" x2="312.1" y2="198.1"/>
		<line class="st3" x1="294.1" y1="208.1" x2="294.1" y2="198.1"/>
		<circle class="st3" cx="303.1" cy="208.1" r="3"/>
		<rect x="496.1" y="192.1" class="st3" width="18" height="6"/>
		<path class="st3" d="M496.1,208.1c0,5,4,9,9,9s9-4,9-9"/>
		<line class="st3" x1="514.1" y1="208.1" x2="514.1" y2="198.1"/>
		<line class="st3" x1="496.1" y1="208.1" x2="496.1" y2="198.1"/>
		<circle class="st3" cx="505.1" cy="208.1" r="3"/>
		
			<rect x="465.1" y="108.1" transform="matrix(-1 -4.494417e-11 4.494417e-11 -1 954.1697 288.2551)" class="st3" width="24" height="72"/>
		<line class="st3" x1="489.1" y1="132.1" x2="465.1" y2="132.1"/>
		<line class="st3" x1="489.1" y1="156.1" x2="465.1" y2="156.1"/>
		
			<rect x="445.1" y="100.1" transform="matrix(-1 -4.483803e-11 4.483803e-11 -1 910.1697 280.2551)" class="st3" width="20" height="80"/>
		<line class="st3" x1="465.1" y1="122.1" x2="445.1" y2="122.1"/>
		<line class="st3" x1="465.1" y1="166.1" x2="445.1" y2="166.1"/>
		
			<rect x="397.1" y="132.1" transform="matrix(-4.502017e-11 1 -1 -4.502017e-11 577.2124 -240.9573)" class="st3" width="24" height="72"/>
		<path class="st3" d="M391.1,156.1c-5,0-9-4-9-9s4-9,9-9"/>
		<path class="st3" d="M391.1,151.1c-2.2,0-4-1.8-4-4c0-2.2,1.8-4,4-4"/>
		<polyline class="st3" points="391.1,138.1 421.1,138.1 421.1,143.1 391.1,143.1 		"/>
		<polyline class="st3" points="391.1,151.1 421.1,151.1 421.1,156.1 		"/>
		<line class="st3" x1="417.1" y1="143.1" x2="417.1" y2="151.1"/>
		<rect x="306.1" y="160.1" class="st3" width="48" height="20"/>
		<line class="st3" x1="306.1" y1="166.1" x2="354.1" y2="166.1"/>
		<path class="st3" d="M326.1,170.1c0,2.2,1.8,4,4,4c2.2,0,4-1.8,4-4"/>
		<line class="st3" x1="334.1" y1="170.1" x2="334.1" y2="166.1"/>
		<line class="st3" x1="326.1" y1="170.1" x2="326.1" y2="166.1"/>
		<circle class="st3" cx="477.1" cy="144.1" r="4"/>
		<line class="st3" x1="382.1" y1="156.1" x2="382.1" y2="180.1"/>
		<line class="st3" x1="388.1" y1="156.1" x2="388.1" y2="180.1"/>
		<line class="st3" x1="398.1" y1="156.1" x2="398.1" y2="180.1"/>
		<line class="st3" x1="404.1" y1="156.1" x2="404.1" y2="180.1"/>
		<line class="st3" x1="414.1" y1="156.1" x2="414.1" y2="180.1"/>
		<line class="st3" x1="420.1" y1="156.1" x2="420.1" y2="180.1"/>
		<line class="st3" x1="430.1" y1="156.1" x2="430.1" y2="180.1"/>
		<line class="st3" x1="436.1" y1="156.1" x2="436.1" y2="180.1"/>
		<line class="st3" x1="489.1" y1="162.1" x2="465.1" y2="162.1"/>
		<line class="st3" x1="489.1" y1="126.1" x2="465.1" y2="126.1"/>
		<line class="st4" x1="330.1" y1="166.1" x2="330.1" y2="170.1"/>
		<line class="st5" x1="450.1" y1="129.1" x2="460.1" y2="129.1"/>
		<line class="st5" x1="451.1" y1="132.1" x2="459.1" y2="132.1"/>
		<line class="st4" x1="284.1" y1="188.1" x2="296.1" y2="188.1"/>
		<line class="st4" x1="284.1" y1="185.1" x2="290.1" y2="185.1"/>
		<line class="st4" x1="524.1" y1="188.1" x2="516.2" y2="188.1"/>
		<line class="st4" x1="354.1" y1="185.1" x2="381.5" y2="185.1"/>
		<line class="st4" x1="429.8" y1="188.1" x2="445.1" y2="188.1"/>
		<line class="st4" x1="417.1" y1="147.6" x2="410.1" y2="147.6"/>
		<path class="st4" d="M317.2,422.8c0.9,9.5,8.5,17,17.9,17.9"/>
		<path class="st4" d="M404.2,504.8c0.4,4.8,2.5,9.2,5.8,12.4c3.6,3.6,8.6,5.9,14.1,5.9"/>
		<line class="st4" x1="404.1" y1="500.8" x2="404.1" y2="445.8"/>
		<line class="st4" x1="404.1" y1="441.8" x2="404.1" y2="390.8"/>
		<line class="st4" x1="317.1" y1="418.8" x2="317.1" y2="390.8"/>
		<line class="st4" x1="404.1" y1="440.8" x2="339.1" y2="440.8"/>
		<polyline class="st3" points="564.1,523 564.1,515 560.1,515 548.1,515 536.1,515 524.1,515 512.1,515 508.1,515 508.1,523 		"/>
		<path class="st3" d="M524.1,515h-12c0-3.3,2.7-6,6-6C521.4,509,524.1,511.7,524.1,515z"/>
		<path class="st3" d="M536.1,515h-12c0-3.3,2.7-6,6-6C533.4,509,536.1,511.7,536.1,515z"/>
		<path class="st3" d="M560.1,515h-12c0-3.3,2.7-6,6-6C557.4,509,560.1,511.7,560.1,515z"/>
		<path class="st4" d="M494.1,523c4.4,0,8-3.6,8-8v-6c0-4.4,3.6-8,8-8s8,3.6,8,8"/>
		<path class="st4" d="M514.1,510.5V509c0-4.4,3.6-8,8-8s8,3.6,8,8"/>
		<path class="st4" d="M578.1,523c-4.4,0-8-3.6-8-8v-6c0-4.4-3.6-8-8-8s-8,3.6-8,8"/>
		<path class="st4" d="M592.1,523c5.5,0,10.5-2.2,14.1-5.9c2.5-2.5,4.4-5.8,5.3-9.4"/>
		<path class="st4" d="M612.1,390.8V503c0,0.3,0,0.5,0,0.8"/>
		<rect x="313.1" y="418.8" class="st4" width="8" height="4"/>
		<line class="st4" x1="315.1" y1="420.8" x2="315.1" y2="420.8"/>
		<line class="st4" x1="319.1" y1="420.8" x2="319.1" y2="420.8"/>
		<rect x="333.1" y="438.8" transform="matrix(4.479268e-11 -1 1 4.479268e-11 -103.63 777.87)" class="st4" width="8" height="4"/>
		<line class="st4" x1="337.1" y1="442.8" x2="337.1" y2="442.8"/>
		<line class="st4" x1="337.1" y1="438.8" x2="337.1" y2="438.8"/>
		<rect x="399.7" y="441.8" class="st4" width="8" height="4"/>
		<line class="st4" x1="401.7" y1="443.8" x2="401.7" y2="443.8"/>
		<line class="st4" x1="405.7" y1="443.8" x2="405.7" y2="443.8"/>
		<rect x="400.1" y="500.8" class="st4" width="8" height="4"/>
		<line class="st4" x1="402.1" y1="502.8" x2="402.1" y2="502.8"/>
		<line class="st4" x1="406.1" y1="502.8" x2="406.1" y2="502.8"/>
		<rect x="608.1" y="503.8" class="st4" width="8" height="4"/>
		<line class="st4" x1="610.1" y1="505.8" x2="610.1" y2="505.8"/>
		<line class="st4" x1="614.1" y1="505.8" x2="614.1" y2="505.8"/>
	</g>
</g>
<g id="main">
	<g id="color_1_">
		<g>
			<g id="XMLID_1_">
				<g>
					<path class="st6" d="M626.1,312c0,3.2-1.7,6-4.2,7.6c-1.4,0.9-3,1.4-4.8,1.4c-0.9,0-1.8-0.1-2.6-0.4c-3.7-1.1-6.4-4.5-6.4-8.6
						c0-0.5,0-1,0.1-1.4c0.3-1.8,1.2-3.5,2.4-4.8c1.6-1.7,4-2.8,6.5-2.8C622.1,303,626.1,307,626.1,312z M621.1,312
						c0-1.1-0.5-2.1-1.2-2.8c-0.7-0.7-1.7-1.2-2.8-1.2c-2.2,0-4,1.8-4,4c0,1.1,0.5,2.1,1.2,2.8c0.7,0.7,1.7,1.2,2.8,1.2
						C619.3,316,621.1,314.2,621.1,312z"/>
					<path class="st7" d="M624.1,374.8v4c0,2.2-1.8,4-4,4h-4h-424h-4c-2.2,0-4-1.8-4-4v-4c0-2.2,1.8-4,4-4h25h34h30h80h20h54h20h24
						h42h8h41h14h14h16h10C622.3,370.8,624.1,372.5,624.1,374.8z"/>
					<path class="st8" d="M620,309.1c0.7,0.7,1.2,1.7,1.2,2.8c0,2.2-1.8,4-4,4c-1.1,0-2.1-0.5-2.8-1.2L620,309.1z"/>
					<path class="st8" d="M620,309.1l-5.7,5.7c-0.7-0.7-1.2-1.7-1.2-2.8c0-2.2,1.8-4,4-4C618.2,308,619.2,308.4,620,309.1z"/>
					<path class="st7" d="M616.1,382.8v6c0,1.1-0.9,2-2,2h-28h-12h-340h-12h-28c-1.1,0-2-0.9-2-2v-6H616.1z"/>
					<polygon class="st6" points="610.1,362.8 610.1,370.8 594.1,370.8 594.1,362.8 602.1,362.8 607.6,362.8 					"/>
					<polygon class="st7" points="586.1,520.8 586.1,523 581.1,523 574.1,523 574.1,520.8 574.1,397.6 586.1,397.6 					"/>
					<rect x="574.1" y="390.8" class="st7" width="12" height="6.9"/>
					<rect x="566.1" y="344.8" class="st9" width="14" height="26"/>
					<polygon class="st9" points="580.1,338.8 580.1,344.8 566.1,344.8 566.1,338.8 569.4,338.8 576.1,338.8 					"/>
					<path class="st6" d="M578.2,265.8c2.6,2.6,2.6,6.8,0,9.4l-3.8,3.8c-1.2-3.1-3.1-6-5.6-8.5c-2.5-2.5-5.4-4.4-8.5-5.6l3.8-3.8
						c2.6-2.6,6.8-2.6,9.4,0l1.4,1.4L578.2,265.8z"/>
					<path class="st6" d="M574.3,279c3.5,9,1.6,19.6-5.6,26.8l-4.7,4.7l-35.4-35.4l4.7-4.7c7.2-7.2,17.8-9.1,26.8-5.6
						c3.1,1.2,6,3.1,8.5,5.6C571.2,273,573.1,275.9,574.3,279z"/>
					<path class="st8" d="M533.1,361.8v1c0,4.4-3.6,8-8,8h-8c-4.4,0-8-3.6-8-8v-16h24V361.8z"/>
					<polygon class="st8" points="533.1,345.8 533.1,346.8 509.1,346.8 509.1,340.8 533.1,340.8 					"/>
					<path class="st8" d="M485.1,337.8v9c0,3.3-2.7,6-6,6h-55.7h-38.6h-55.7c-3.3,0-6-2.7-6-6v-9H485.1z M407.1,344.8
						c0-1.7-1.3-3-3-3s-3,1.3-3,3s1.3,3,3,3S407.1,346.4,407.1,344.8z"/>
					<path class="st10" d="M485.1,246.8v91h-162v-91c0-3.3,2.7-6,6-6h150C482.4,240.8,485.1,243.4,485.1,246.8z M478.1,330.8v-83
						h-148v83H478.1z"/>
					<rect x="330.1" y="247.8" class="st11" width="148" height="83"/>
					<path class="st10" d="M475.1,370.8h-24c1.1-5.6,6.1-9.8,12-9.8C469,361,474,365.2,475.1,370.8z"/>
					<rect x="377.1" y="362.8" class="st10" width="54" height="8"/>
					<path class="st10" d="M431.1,362.8h-54c5.2,0,7.7-6,7.7-10h38.6C423.4,356.7,425.9,362.8,431.1,362.8z"/>
					<circle class="st10" cx="404.1" cy="344.8" r="3"/>
					<path class="st10" d="M357.1,366.8v4h-80v-4c0-2.2,1.8-4,4-4h72C355.3,362.8,357.1,364.5,357.1,366.8z"/>
					<polygon class="st7" points="332.1,428 332.1,514 328.1,514 320.1,514 254.1,514 246.1,514 242.1,514 242.1,428 					"/>
					<rect x="242.1" y="404" class="st7" width="90" height="24"/>
					<rect x="320.1" y="514" class="st11" width="8" height="9"/>
					<rect x="246.1" y="514" class="st11" width="8" height="9"/>
					<path class="st12" d="M247.1,319.8v51h-34v-51H247.1z M240.1,351.8c0-5.5-4.5-10-10-10c-5.5,0-10,4.5-10,10s4.5,10,10,10
						C235.6,361.8,240.1,357.3,240.1,351.8z M234.1,330.8c0-2.2-1.8-4-4-4c-2.2,0-4,1.8-4,4s1.8,4,4,4
						C232.3,334.8,234.1,333,234.1,330.8z"/>
					<circle class="st10" cx="230.1" cy="351.8" r="10"/>
					<polygon class="st7" points="234.1,520.8 234.1,523 227.1,523 222.1,523 222.1,520.8 222.1,397.6 234.1,397.6 					"/>
					<rect x="222.1" y="390.8" class="st7" width="12" height="6.9"/>
					<circle class="st10" cx="230.1" cy="330.8" r="4"/>
				</g>
				<g>
				</g>
			</g>
		</g>
	</g>
	<g id="shadow">
		<rect x="192.1" y="382.8" class="st13" width="422.4" height="7.9"/>
		<rect x="222.1" y="390.7" class="st13" width="12" height="14.1"/>
		<rect x="574.1" y="390.7" class="st13" width="12" height="14.1"/>
		<rect x="184.4" y="371.8" class="st14" width="440" height="4"/>
		<rect x="213.1" y="319" class="st14" width="34" height="5"/>
		<rect x="277.1" y="362.8" class="st14" width="80" height="4"/>
		<path class="st14" d="M454.9,371.6c1.8-4.6,6.2-7.8,11.4-7.8c2.9,0,5.5,1,7.6,2.6c-2.2-2.8-5.7-4.6-9.6-4.6
			c-5.9,0-10.9,4.2-12,9.8H454.9L454.9,371.6"/>
		<path class="st14" d="M485.1,250.8c0-3.3-2.7-6-6-6h-150c-3.3,0-6,2.7-6,6v-3c0-3.3,2.7-6,6-6h150c3.3,0,6,2.7,6,6V250.8z"/>
		<rect x="384.7" y="353.1" class="st13" width="39.4" height="4.2"/>
		<rect x="377.1" y="362.8" class="st14" width="54" height="4"/>
		<rect x="509.1" y="340.8" class="st15" width="23.3" height="6"/>
		<rect x="566.1" y="338.8" class="st14" width="13.4" height="6"/>
		<polygon class="st14" points="362.5,247.8 330.1,280.2 330.1,289.2 371.7,247.7 		"/>
		<polygon class="st14" points="330.1,296.8 379.1,247.8 423.4,247.8 340.2,331 330.1,331 		"/>
		<path class="st14" d="M626.1,313c0,0.5,0,1-0.1,1.5c-0.7-4.3-4.4-7.5-8.9-7.5s-8.2,3.2-8.9,7.5c-0.1-0.5-0.1-1-0.1-1.5
			c0-5,4-9,9-9C622.1,304,626.1,308,626.1,313z"/>
		<polygon class="st14" points="610.1,366.8 607.6,366.8 602.1,366.8 594.1,366.8 594.1,363.8 602.1,363.8 607.6,363.8 610.1,363.8 
					"/>
		<path class="st14" d="M574.3,280.6c0.3,0.7,0.5,1.5,0.8,2.2c0.8,2.7,1.1,5.6,0.9,8.4c-0.2-2.6-0.7-5.2-1.7-7.7
			c-1.2-3.1-3.1-6-5.6-8.5c-2.5-2.5-5.4-4.4-8.5-5.6c-9-3.5-19.5-1.6-26.8,5.6l-3.2,3.2l-1.5-1.5l4.7-4.7c7.2-7.2,17.8-9.1,26.8-5.6
			l3.8-3.8c2.6-2.6,6.8-2.6,9.4,0l4.7,4.7c1.7,1.7,2.3,4,1.8,6.2c-0.3-1.2-0.9-2.3-1.8-3.2l-4.7-4.7c-2.6-2.6-6.8-2.6-9.4,0
			l-1.8,1.8c2.3,1.2,4.5,2.7,6.5,4.7C571.2,274.6,573.1,277.5,574.3,280.6c0.3,0.7,0.5,1.5,0.8,2.2"/>
		
			<ellipse transform="matrix(0.9494 -0.3141 0.3141 0.9494 -57.844 184.7446)" class="st14" cx="544.4" cy="271.9" rx="5.9" ry="2.2"/>
		<path class="st14" d="M220.1,351.8c0,2.7,1,6.1,2.8,7.9l-9.7,9.7v-11.4l7-7C220.1,351.2,220.1,351.5,220.1,351.8z"/>
		<path class="st14" d="M247.4,335.1L237,345.5c-1.8-1.7-4.2-3.8-6.9-3.8c-0.3,0-0.5,0-0.8,0l17.8-17.8L247.4,335.1z"/>
		<rect x="242.1" y="404" class="st14" width="90" height="4.8"/>
		<rect x="242.1" y="428" class="st14" width="90" height="4.8"/>
	</g>
	<g id="lines_2_">
		<path class="st16" d="M479.1,352.8h-150c-3.3,0-6-2.7-6-6v-100c0-3.3,2.7-6,6-6h150c3.3,0,6,2.7,6,6v100
			C485.1,350.1,482.4,352.8,479.1,352.8z"/>
		<line class="st17" x1="323.1" y1="337.8" x2="485.1" y2="337.8"/>
		<rect x="330.1" y="247.8" class="st16" width="148" height="83"/>
		<circle class="st17" cx="404.1" cy="344.8" r="3"/>
		<rect x="377.1" y="362.8" class="st16" width="54" height="8"/>
		<path class="st16" d="M377.1,362.8c5.2,0,7.7-6,7.7-10"/>
		<path class="st16" d="M431.1,362.8c-5.2,0-7.7-6-7.7-10"/>
		<path class="st16" d="M620.1,382.8h-432c-2.2,0-4-1.8-4-4v-4c0-2.2,1.8-4,4-4h432c2.2,0,4,1.8,4,4v4
			C624.1,381,622.3,382.8,620.1,382.8z"/>
		<path class="st16" d="M616.1,382.8v6c0,1.1-0.9,2-2,2h-420c-1.1,0-2-0.9-2-2v-6"/>
		<line class="st16" x1="222.1" y1="520.8" x2="222.1" y2="390.8"/>
		<line class="st16" x1="362.1" y1="523" x2="361.1" y2="523"/>
		<line class="st16" x1="626.1" y1="523" x2="372.1" y2="523"/>
		<line class="st16" x1="351.1" y1="523" x2="184.1" y2="523"/>
		<line class="st16" x1="234.1" y1="397.6" x2="222.1" y2="397.6"/>
		<g>
			<polyline class="st16" points="566.1,370.8 566.1,338.8 580.1,338.8 580.1,370.8 			"/>
			<line class="st16" x1="566.1" y1="344.8" x2="580.1" y2="344.8"/>
			<line class="st16" x1="576.1" y1="338.8" x2="576.1" y2="329.2"/>
			<line class="st16" x1="569.4" y1="338.8" x2="567.5" y2="327.8"/>
		</g>
		<g>
			<path class="st16" d="M525.1,370.8h-8c-4.4,0-8-3.6-8-8v-22h24v22C533.1,367.2,529.5,370.8,525.1,370.8z"/>
			<path class="st16" d="M533.1,345.8c4.4,0,8,3.6,8,8l0,0c0,4.4-3.6,8-8,8"/>
			<line class="st17" x1="509.1" y1="346.8" x2="533.1" y2="346.8"/>
			<path class="st18" d="M531.5,301.1c0,0.2,0,0.5,0,0.7c0,4.7-3.2,8.6-7.5,9.7"/>
			<path class="st18" d="M525.9,292.8c-1.3-0.7-2.8-1-4.4-1"/>
			<path class="st18" d="M530,296.5c-0.2-0.3-0.4-0.5-0.6-0.8"/>
			<path class="st18" d="M515.9,314.6c-0.9,1.2-1.4,2.6-1.4,4.2c0,2.8,1.6,5.2,3.9,6.3"/>
			<path class="st18" d="M523.5,326.3c1.2,0.7,2,2,2,3.5c0,2.2-1.8,4-4,4"/>
		</g>
		<path class="st16" d="M451.1,370.8c1.1-5.6,6.1-9.8,12-9.8c5.9,0,10.9,4.2,12,9.8"/>
		<path class="st16" d="M277.1,370.8v-4c0-2.2,1.8-4,4-4h72c2.2,0,4,1.8,4,4v4"/>
		<polyline class="st16" points="213.1,370.8 213.1,319.8 247.1,319.8 247.1,370.8 		"/>
		<circle class="st16" cx="230.1" cy="351.8" r="10"/>
		<circle class="st16" cx="230.1" cy="330.8" r="4"/>
		<line class="st16" x1="241.1" y1="364.8" x2="241.2" y2="364.8"/>
		<path class="st17" d="M233.6,355.3c-0.9,0.9-2.2,1.5-3.5,1.5c-2.8,0-5-2.2-5-5s2.2-5,5-5c2.8,0,5,2.2,5,5"/>
		<line class="st16" x1="234.1" y1="520.8" x2="234.1" y2="390.8"/>
		<line class="st16" x1="574.1" y1="520.8" x2="574.1" y2="390.8"/>
		<line class="st16" x1="586.1" y1="397.6" x2="574.1" y2="397.6"/>
		<line class="st16" x1="586.1" y1="520.8" x2="586.1" y2="390.8"/>
		<line class="st17" x1="227.1" y1="509" x2="227.1" y2="523"/>
		<line class="st17" x1="581.1" y1="517" x2="581.1" y2="523"/>
		<line class="st16" x1="230" y1="351.8" x2="230.1" y2="351.8"/>
		<g>
			<polyline class="st16" points="602.1,362.8 594.1,362.8 594.1,370.8 610.1,370.8 610.1,362.8 607.6,362.8 602.1,362.8 			"/>
			<circle class="st16" cx="617.1" cy="312" r="9"/>
			<line class="st16" x1="614.6" y1="320.6" x2="602.1" y2="362.8"/>
			<line class="st16" x1="610.6" y1="305.8" x2="578.7" y2="275.5"/>
			<path class="st16" d="M574.3,279.1c3.5,9,1.7,19.6-5.6,26.8l-4.7,4.7l-35.4-35.4l4.7-4.7c7.2-7.2,17.8-9.1,26.8-5.6"/>
			<path class="st16" d="M578.2,275.2l-3.8,3.8c-1.2-3.1-3.1-6-5.6-8.6c-2.5-2.5-5.4-4.4-8.6-5.6l3.8-3.8c2.6-2.6,6.8-2.6,9.4,0
				l4.7,4.7C580.8,268.4,580.8,272.6,578.2,275.2z"/>
			<circle class="st17" cx="617.1" cy="312" r="4"/>
			<line class="st17" x1="619.9" y1="309.2" x2="614.3" y2="314.8"/>
			<path class="st17" d="M575.4,261.9c11,0,20,9,20,20"/>
			<path class="st17" d="M595.4,281.9v10c0,5.5,2.2,10.5,5.9,14.1c2,2,4.3,3.5,6.9,4.5"/>
			<path class="st17" d="M621.9,319.6c5.9,7.8,5.3,19-1.9,26.1"/>
			<path class="st17" d="M607.6,362.8c0.8-3.6,2.6-7.1,5.4-10l7.1-7.1"/>
			<line class="st17" x1="541.5" y1="278.6" x2="540.5" y2="277.6"/>
			<line class="st17" x1="538" y1="275.1" x2="533.4" y2="270.5"/>
			<line class="st17" x1="568.7" y1="305.9" x2="544" y2="281.1"/>
		</g>
		<line class="st16" x1="174.1" y1="523" x2="164.1" y2="523"/>
		<line class="st16" x1="636.1" y1="523" x2="635.1" y2="523"/>
		<line class="st19" x1="515.1" y1="351.8" x2="527.1" y2="351.8"/>
		<line class="st19" x1="517.1" y1="355.8" x2="525.1" y2="355.8"/>
		<g>
			<rect x="242.1" y="404" class="st16" width="90" height="110"/>
			<line class="st16" x1="320.1" y1="523" x2="320.1" y2="514"/>
			<line class="st16" x1="328.1" y1="514" x2="328.1" y2="523"/>
			<line class="st16" x1="246.1" y1="523" x2="246.1" y2="514"/>
			<line class="st16" x1="254.1" y1="514" x2="254.1" y2="523"/>
			<line class="st16" x1="242.1" y1="428" x2="332.1" y2="428"/>
			<line class="st16" x1="279.1" y1="416" x2="295.1" y2="416"/>
			<line class="st16" x1="279.1" y1="440" x2="295.1" y2="440"/>
		</g>
		<line class="st17" x1="324.1" y1="500" x2="324.1" y2="514"/>
		<line class="st17" x1="324.1" y1="494.2" x2="324.1" y2="490.8"/>
		<line class="st17" x1="311" y1="514" x2="311" y2="509"/>
	</g>
</g>
</svg>
