<?xml version="1.0" encoding="utf-8"?>
<!-- Generator: Adobe Illustrator 21.0.0, SVG Export Plug-In . SVG Version: 6.00 Build 0)  -->
<svg version="1.1" xmlns="http://www.w3.org/2000/svg" xmlns:xlink="http://www.w3.org/1999/xlink" x="0px" y="0px"
	 viewBox="0 0 800 600" style="enable-background:new 0 0 800 600;" xml:space="preserve">
<style type="text/css">
	.st0{fill:#FAF4ED;}
	.st1{fill:#F5F5F7;}
	.st2{fill:#F7F7F7;}
	.st3{fill:#F7FEFF;}
	.st4{opacity:4.000000e-02;fill:#141414;}
	.st5{fill:#FFFFFF;}
	.st6{opacity:5.000000e-02;fill:#141414;}
	.st7{opacity:3.000000e-02;fill:#141414;}
	.st8{opacity:0.5;fill:#FFFFFF;}
	.st9{opacity:0.75;fill:#FFFFFF;}
	.st10{opacity:0.7;fill:#FFFFFF;}
	.st11{opacity:2.000000e-02;fill:#141414;}
	.st12{fill:#141414;}
	.st13{fill:none;stroke:#DCDEE8;stroke-width:3;stroke-linecap:round;stroke-linejoin:round;stroke-miterlimit:10;}
	.st14{fill:none;stroke:#DCDEE8;stroke-width:6;stroke-linecap:round;stroke-linejoin:round;stroke-miterlimit:10;}
	.st15{fill:none;stroke:#DCDEE8;stroke-width:1.5;stroke-linecap:round;stroke-linejoin:round;stroke-miterlimit:10;}
	.st16{fill:none;stroke:#DCDEE8;stroke-width:4;stroke-linecap:round;stroke-linejoin:round;stroke-miterlimit:10;}
	.st17{fill:none;stroke:#DCDEE8;stroke-width:2;stroke-linecap:round;stroke-linejoin:round;stroke-miterlimit:10;}
	.st18{fill:none;stroke:#DCDEE8;stroke-width:3;stroke-linejoin:round;stroke-miterlimit:10;}
	.st19{fill:#EBB886;}
	.st20{fill:#48FFFF;}
	.st21{fill:#D2FFFE;}
	.st22{fill:#E2E2E2;}
	.st23{fill:#51576B;}
	.st24{fill:#D1F7C9;}
	.st25{fill:#FFF5DE;}
	.st26{fill:#FF7382;}
	.st27{fill:#00D3FF;}
	.st28{fill:#FFE499;}
	.st29{fill:#BEE1E5;}
	.st30{opacity:0.35;fill:#141414;}
	.st31{opacity:0.35;fill:#FFFFFF;}
	.st32{opacity:0.15;fill:#FFFFFF;}
	.st33{opacity:8.000000e-02;fill:#141414;}
	.st34{opacity:0.12;fill:#141414;}
	.st35{opacity:0.3;fill:#FFFFFF;}
	.st36{opacity:0.25;fill:#141414;}
	.st37{opacity:0.15;fill:#141414;}
	.st38{opacity:0.1;fill:#141414;}
	.st39{opacity:0.59;fill:#FFFFFF;}
	.st40{fill:none;stroke:#3A4061;stroke-width:2;stroke-linecap:round;stroke-linejoin:round;stroke-miterlimit:10;}
	.st41{fill:none;stroke:#3A4061;stroke-width:4;stroke-linecap:round;stroke-linejoin:round;stroke-miterlimit:10;}
	.st42{fill:#F0F0F2;stroke:#3A4061;stroke-miterlimit:10;}
	.st43{fill:none;stroke:#3A4061;stroke-width:6;stroke-linecap:round;stroke-linejoin:round;stroke-miterlimit:10;}
	.st44{fill:none;stroke:#3A4061;stroke-width:2;stroke-linejoin:round;stroke-miterlimit:10;}
	.st45{fill:none;stroke:#3A4061;stroke-width:3.5;stroke-linejoin:round;stroke-miterlimit:10;}
	.st46{fill:none;stroke:#3A4061;stroke-width:3.5;stroke-linecap:round;stroke-linejoin:round;stroke-miterlimit:10;}
	.st47{fill:none;stroke:#3A4061;stroke-width:3.5;stroke-miterlimit:10;}
</style>
<g id="background">
	<g id="colors_1_">
		<g id="XMLID_2_">
			<g>
				<polygon class="st0" points="563.5,181.8 563.5,189 556.8,189 265,189 262,189 257.2,189 250.5,189 250.5,181.8 				"/>
				<polygon class="st1" points="556.8,189 559.8,200.5 556.8,200.5 550.4,200.5 257.2,200.5 254.2,200.5 257.2,189 262,189 
					265,189 				"/>
				<polygon class="st1" points="556.8,200.5 559.8,212 556.8,212 327.9,212 324.5,212 257.2,212 254.2,212 257.2,200.5 
					550.4,200.5 				"/>
				<polygon class="st1" points="556.8,212 559.8,223.5 550.2,223.5 541,223.5 537.2,223.5 532.5,223.5 426,223.5 417.5,223.5 
					396.5,223.5 388,223.5 281.5,223.5 273,223.5 254.2,223.5 257.2,212 324.5,212 327.9,212 				"/>
				<polygon class="st0" points="541,223.5 541,363 417.5,363 417.5,223.5 426,223.5 426,233.5 426,354.1 473.7,354.1 502.7,354.1 
					532.5,354.1 532.5,245 532.5,223.5 537.2,223.5 				"/>
				<path class="st2" d="M532.5,245v109.1h-29.9v-0.4h14.1v-62.9h4.3v-7h-18.4v-0.2V245h5.3h5.8H532.5z M527.9,340v-6.6h-6.6v6.6
					H527.9z M527.9,328.1v-6.6h-6.6v6.6H527.9z M527.9,316.2v-6.6h-6.6v6.6H527.9z M527.9,304.3v-6.6h-6.6v6.6H527.9z M527.9,292.4
					v-6.6h-6.6v6.6H527.9z M527.9,280.5V274h-6.6v6.6H527.9z M527.9,268.6v-6.6h-6.6v6.6H527.9z M527.9,256.8v-6.6h-6.6v6.6H527.9z
					 M515.6,280.5V274H509v6.6H515.6z M515.6,268.6v-6.6H509v6.6H515.6z M515.6,256.8v-6.6H509v6.6H515.6z"/>
				<polygon class="st3" points="532.5,223.5 532.5,245 513.8,245 508,245 502.7,245 502.7,283.6 502.7,283.8 479.3,283.8 
					479.3,290.8 483.5,290.8 483.5,353.7 502.7,353.7 502.7,354.1 473.7,354.1 473.7,233.5 426,233.5 426,223.5 				"/>
				<rect x="521.3" y="333.4" class="st3" width="6.6" height="6.6"/>
				<rect x="521.3" y="321.5" class="st3" width="6.6" height="6.6"/>
				<rect x="521.3" y="309.6" class="st3" width="6.6" height="6.6"/>
				<rect x="521.3" y="297.8" class="st3" width="6.6" height="6.6"/>
				<rect x="521.3" y="285.9" class="st3" width="6.6" height="6.6"/>
				<rect x="521.3" y="274" class="st3" width="6.6" height="6.6"/>
				<rect x="521.3" y="262.1" class="st3" width="6.6" height="6.6"/>
				<rect x="521.3" y="250.2" class="st3" width="6.6" height="6.6"/>
				<polygon class="st2" points="521,283.8 521,290.8 516.8,290.8 483.5,290.8 479.3,290.8 479.3,283.8 502.7,283.8 				"/>
				<polygon class="st2" points="516.8,290.8 516.8,353.7 502.7,353.7 483.5,353.7 483.5,290.8 				"/>
				<rect x="509" y="274" class="st3" width="6.6" height="6.6"/>
				<rect x="509" y="262.1" class="st3" width="6.6" height="6.6"/>
				<rect x="509" y="250.2" class="st3" width="6.6" height="6.6"/>
				<path class="st1" d="M499.5,423.4v7.9c0,2.4-1.9,4.2-4.1,4.2h-11.8v-16.4h11.8C497.6,419.1,499.5,421,499.5,423.4z M495.7,427.3
					c0-2.5-2-4.6-4.6-4.6c-2.5,0-4.6,2-4.6,4.6c0,2.5,2.1,4.6,4.6,4.6C493.7,431.9,495.7,429.9,495.7,427.3z"/>
				<path class="st1" d="M491.2,422.8c2.5,0,4.6,2,4.6,4.6c0,2.5-2,4.6-4.6,4.6c-2.5,0-4.6-2-4.6-4.6
					C486.6,424.8,488.6,422.8,491.2,422.8z"/>
				<path class="st1" d="M483.5,419.1v16.4h-6h0v-2.7v-1.3c1.7-0.7,2.8-2.3,2.8-4.2c0-2.5-2-4.6-4.6-4.6c-2.5,0-4.6,2-4.6,4.6
					c0,1.9,1.2,3.5,2.8,4.2v1.3v2.7h-0.5h-1.9c-2.3,0-4.1-1.9-4.1-4.2v-7.9c0-2.4,1.8-4.3,4.1-4.3H483.5z"/>
				<path class="st1" d="M480.3,427.3c0,1.9-1.2,3.5-2.8,4.2v1.3H474v-1.3c-1.7-0.7-2.8-2.3-2.8-4.2c0-2.5,2-4.6,4.6-4.6
					C478.3,422.8,480.3,424.8,480.3,427.3z"/>
				<path class="st1" d="M477.5,435.5v0.4c0,0.7-0.5,1.2-1.2,1.2h-1c-0.7,0-1.2-0.5-1.2-1.2v-0.4v-2.7h3.5V435.5z"/>
				<rect x="426" y="233.5" class="st2" width="47.6" height="120.6"/>
				<polygon class="st0" points="396.5,223.5 396.5,363 273,363 273,223.5 281.5,223.5 281.5,258.2 281.5,308.8 281.5,314.6 
					281.5,320.5 281.5,329.9 281.5,337.5 281.5,347 281.5,354.1 316.8,354.1 337.4,354.1 377.2,354.1 388,354.1 388,223.5 				"/>
				<path class="st3" d="M388,223.5v130.6h-10.8V246.7h-39.7v107.4h-20.6v-39.5h0h5.4c0-3.2-2.6-5.8-5.8-5.8H306v-50.6h-24.5v-34.7
					H388z M333.2,246.3h48.2c0-3.2-2.6-5.8-5.8-5.8H339c-1.6,0-3.1,0.6-4.1,1.7C333.9,243.2,333.2,244.7,333.2,246.3z"/>
				<path class="st2" d="M381.4,246.3h-48.2c0-1.6,0.6-3,1.7-4.1c1-1.1,2.5-1.7,4.1-1.7h36.6C378.8,240.5,381.4,243.1,381.4,246.3z"
					/>
				<rect x="337.4" y="246.7" class="st2" width="39.7" height="107.4"/>
				<path class="st2" d="M322.2,314.6h-5.4h0h-35.1h-0.3v-5.8H306h10.4C319.6,308.8,322.2,311.4,322.2,314.6z"/>
				<path class="st2" d="M316.8,314.6v39.5h-35.3V347h5.3v-9.4h-5.3v-7.6h5.3v-9.4h-5.3v-5.9h0.3H316.8z M311.3,347v-9.4h-6.6v9.4
					H311.3z M311.3,329.9v-9.4h-6.6v9.4H311.3z M299.1,347v-9.4h-6.6v9.4H299.1z M299.1,329.9v-9.4h-6.6v9.4H299.1z"/>
				<rect x="304.7" y="337.5" class="st3" width="6.6" height="9.4"/>
				<rect x="304.7" y="320.5" class="st3" width="6.6" height="9.4"/>
				<rect x="281.5" y="258.2" class="st2" width="24.5" height="50.6"/>
				<rect x="292.5" y="337.5" class="st3" width="6.6" height="9.4"/>
				<rect x="292.5" y="320.5" class="st3" width="6.6" height="9.4"/>
				<rect x="281.5" y="337.5" class="st3" width="5.3" height="9.4"/>
				<rect x="281.5" y="320.5" class="st3" width="5.3" height="9.4"/>
			</g>
			<g>
			</g>
		</g>
	</g>
	<g id="shadows_1_">
		<path class="st4" d="M489.1,431.4c-1.7-4.7,3.7-7.5,6.5-5l-2.1-3l-4.4-0.4l-1.8,1.9l-0.7,2.4l0.8,2.6L489.1,431.4z"/>
		<path class="st5" d="M473.5,431.4c-4.2-7,4.7-9.4,6.5-5l-2.1-3l-4.4-0.4l-1.8,1.9l-0.7,2.4l0.8,2.6L473.5,431.4z"/>
		<rect x="483.5" y="419.1" class="st5" width="1.6" height="14.1"/>
		<path class="st5" d="M498.6,419.9H470v-0.8h-1.6v17.1h1.6v-13c0-1,0.8-1.8,1.8-1.8h26.9V419.9z"/>
		<path class="st5" d="M475.4,428.5L475.4,428.5c-0.5-0.7-1.2-1.2-2.1-1.4l0,0l0.7,1.7l0.4,8h1.1v-7.8
			C475.5,428.9,475.5,428.7,475.4,428.5z"/>
		<rect x="478.2" y="433.2" class="st6" width="20.4" height="1.8"/>
		<rect x="469.5" y="433.2" class="st6" width="4.5" height="1.8"/>
		<path class="st7" d="M477.3,429.7c0.9-2.4,1.5-2.8,1.2-6.2l1.5,2.9l-0.4,3.3l-1.5,1.5l-0.7,1.1l-0.2-1.7V429.7"/>
		<path class="st5" d="M354,222.5l-87.8-3.1c-3.3-0.1-5.7-3.2-5-6.5l0,0V212h-4.9l-2.2,11.5h4.7l0,0L354,222.5z"/>
		<path class="st5" d="M354,211l-87.8-3.1c-3.3-0.1-5.7-3.2-5-6.5l0,0v-0.9h-4.9l-2.2,11.5h4.7l0,0L354,211z"/>
		<path class="st5" d="M354,199.5l-87.8-3.1c-3.3-0.1-5.7-3.2-5-6.5l0,0V189h-4.9l-2.2,11.5h4.7l0,0L354,199.5z"/>
		<path class="st4" d="M327.4,189l219.9,5.6c3.5,0.1,6.6,2.5,7.4,5.9l0,0h5.1l-3-11.5h-81H327.4z"/>
		<path class="st4" d="M327.4,200.5l219.9,5.6c3.5,0.1,6.6,2.5,7.4,5.9l0,0h5.1l-3-11.5h-81H327.4z"/>
		<path class="st4" d="M327.4,212l219.9,5.6c3.5,0.1,6.6,2.5,7.4,5.9l0,0h5.1l-3-11.5h-81H327.4z"/>
		<path class="st7" d="M505,181.8c-6.9,3.5-26.8,11.1-58.5,6.5l15.2,1.2h101.8v-7.8H505z"/>
		<path class="st8" d="M323.5,181.8c-5.8-0.4-18.7-0.3-32,7.2h-41v-7.2H323.5z"/>
		<path class="st8" d="M396,181.8h-7.3C391.7,181.6,394.2,181.6,396,181.8z"/>
		<path class="st8" d="M366.5,181.8c-6.6,0.4-15.6,2-24.7,7.2h-14.4c9.1-5.2,18.1-6.9,24.7-7.2H366.5z"/>
		<path class="st8" d="M410.4,181.8h-7.3C406.1,181.6,408.6,181.6,410.4,181.8z"/>
		<path class="st8" d="M388,223.8v130.1H281.5V223.8h-3.3v130.1v1.1c0,1.2,1,2.3,2.3,2.3H388h1.3l0,0c1.1,0,1.9-0.9,1.9-1.9V223.8
			H388z"/>
		<path class="st8" d="M532.5,223.8v130.1H426V223.8h-3.3v130.1v1.1c0,1.2,1,2.3,2.3,2.3h107.5h1.3c1.1,0,1.9-0.9,1.9-1.9V223.8
			H532.5z"/>
		<polygon class="st9" points="303.8,223 281.3,245.5 281.3,280 337.4,223.9 		"/>
		<polygon class="st9" points="352,223.8 281.1,294.6 281.1,300.4 357.5,224 		"/>
		<polygon class="st10" points="388,285.9 319.2,354.7 344.3,354.7 387.9,311.1 		"/>
		<polygon class="st9" points="509,223.5 425.2,307.3 425.2,332.9 533.5,224.7 		"/>
		<polygon class="st9" points="446.5,223.8 426.2,244 426.2,254.1 457.1,223.2 		"/>
		<polygon class="st10" points="532.5,270.3 448.5,354.4 490.5,354.4 534.3,310.5 		"/>
		<rect x="281.5" y="314.8" class="st6" width="35.3" height="4.2"/>
		<rect x="337.4" y="246.8" class="st6" width="39.7" height="4.2"/>
		<rect x="483.5" y="291.2" class="st6" width="33.2" height="4.2"/>
		<path class="st11" d="M377.2,266c-9,35.3-31.6,53.5-39.7,59.4v28.4H377L377.2,266z"/>
		<path class="st7" d="M281,269.8c4.2,14.5,15,22.1,25,17.8v21.2h-24.4L281,269.8z"/>
		<rect x="281.3" y="258.2" class="st8" width="24.7" height="3.8"/>
		<rect x="335.4" y="240.9" class="st8" width="44.2" height="2.5"/>
		<rect x="479.3" y="283.8" class="st8" width="41.7" height="3.2"/>
		<rect x="502.1" y="245" class="st8" width="30.4" height="3.2"/>
		<rect x="426.5" y="233.8" class="st8" width="47.2" height="3.2"/>
		<rect x="281.8" y="308.3" class="st8" width="37.8" height="3.2"/>
		<path class="st7" d="M516.7,314.3c-6.2,13.1-20.5,19.9-33.5,16.7v22.7h34.4L516.7,314.3z"/>
		<path class="st12" d="M502.7,277.3"/>
		<path class="st7" d="M532.5,256.7c0,5.3-7.4,22.1-29.9,18.6v8H521v7.1h-4.3v51.7v11.9h15.8L532.5,256.7z"/>
	</g>
	<g id="lines_1_">
		<rect x="273" y="223.5" class="st13" width="123.5" height="139.5"/>
		<rect x="250.5" y="181.8" class="st13" width="313" height="7.2"/>
		<rect x="281.5" y="223.5" class="st13" width="106.5" height="130.6"/>
		<rect x="426" y="223.5" class="st13" width="106.5" height="130.6"/>
		
			<rect x="417.5" y="223.5" transform="matrix(-1 -4.969992e-11 4.969992e-11 -1 958.5493 586.5)" class="st13" width="123.5" height="139.5"/>
		<line class="st13" x1="550.2" y1="223.5" x2="550.2" y2="276.8"/>
		<line class="st14" x1="550.2" y1="276.8" x2="550.2" y2="283.8"/>
		<line class="st13" x1="489.1" y1="297.1" x2="489.1" y2="299.8"/>
		<line class="st13" x1="496.5" y1="297.1" x2="496.5" y2="299.8"/>
		<line class="st13" x1="503.9" y1="297.1" x2="503.9" y2="299.8"/>
		<line class="st13" x1="511.2" y1="297.1" x2="511.2" y2="299.8"/>
		<polygon class="st13" points="559.8,200.5 254.2,200.5 257.2,189 556.8,189 		"/>
		<polygon class="st13" points="559.8,212 254.2,212 257.2,200.5 556.8,200.5 		"/>
		<polygon class="st13" points="559.8,223.5 254.2,223.5 257.2,212 556.8,212 		"/>
		<polyline class="st13" points="502.7,283.6 502.7,245 532.5,245 532.5,354.1 502.7,354.1 502.7,353.7 		"/>
		<rect x="426" y="233.5" class="st13" width="47.6" height="120.6"/>
		<rect x="483.6" y="290.8" class="st13" width="33.2" height="62.9"/>
		<rect x="479.3" y="283.8" class="st13" width="41.8" height="7"/>
		<path class="st13" d="M381.4,246.7h-48.2l0,0c0-3.2,2.6-5.8,5.8-5.8h36.6C378.8,240.9,381.4,243.5,381.4,246.7L381.4,246.7z"/>
		<path class="st13" d="M281.8,308.8h17.7h17c3.2,0,5.8,2.6,5.8,5.8h-5.3h-35.1h-0.3"/>
		<line class="st13" x1="508" y1="237.6" x2="508" y2="245"/>
		<line class="st13" x1="513.8" y1="240.4" x2="513.8" y2="245"/>
		<rect x="509" y="250.2" class="st15" width="6.6" height="6.6"/>
		<rect x="521.3" y="250.2" class="st15" width="6.6" height="6.6"/>
		<rect x="509" y="262.1" class="st15" width="6.6" height="6.6"/>
		<rect x="521.3" y="262.1" class="st15" width="6.6" height="6.6"/>
		<rect x="509" y="274" class="st15" width="6.6" height="6.6"/>
		<rect x="521.3" y="274" class="st15" width="6.6" height="6.6"/>
		<rect x="292.5" y="320.5" class="st15" width="6.6" height="9.4"/>
		<rect x="304.7" y="320.5" class="st15" width="6.6" height="9.4"/>
		<rect x="292.5" y="337.6" class="st15" width="6.6" height="9.4"/>
		<rect x="304.7" y="337.6" class="st15" width="6.6" height="9.4"/>
		<rect x="281.5" y="320.5" class="st15" width="5.3" height="9.4"/>
		<rect x="281.5" y="337.6" class="st15" width="5.3" height="9.4"/>
		<rect x="521.3" y="285.9" class="st15" width="6.6" height="6.6"/>
		<rect x="521.3" y="297.8" class="st15" width="6.6" height="6.6"/>
		<rect x="521.3" y="309.6" class="st15" width="6.6" height="6.6"/>
		<rect x="521.3" y="321.5" class="st15" width="6.6" height="6.6"/>
		<rect x="521.3" y="333.4" class="st15" width="6.6" height="6.6"/>
		<line class="st13" x1="489.1" y1="306.8" x2="489.1" y2="309.5"/>
		<line class="st13" x1="496.5" y1="306.8" x2="496.5" y2="309.5"/>
		<line class="st13" x1="503.9" y1="306.8" x2="503.9" y2="309.5"/>
		<line class="st13" x1="511.2" y1="306.8" x2="511.2" y2="309.5"/>
		<line class="st13" x1="489.1" y1="316.5" x2="489.1" y2="319.2"/>
		<line class="st13" x1="496.5" y1="316.5" x2="496.5" y2="319.2"/>
		<line class="st13" x1="503.9" y1="316.5" x2="503.9" y2="319.2"/>
		<line class="st13" x1="511.2" y1="316.5" x2="511.2" y2="319.2"/>
		<line class="st13" x1="489.1" y1="326.3" x2="489.1" y2="329"/>
		<line class="st13" x1="496.5" y1="326.3" x2="496.5" y2="329"/>
		<line class="st13" x1="503.9" y1="326.3" x2="503.9" y2="329"/>
		<line class="st13" x1="511.2" y1="326.3" x2="511.2" y2="329"/>
		<line class="st13" x1="489.1" y1="336" x2="489.1" y2="338.7"/>
		<line class="st13" x1="496.5" y1="336" x2="496.5" y2="338.7"/>
		<line class="st13" x1="503.9" y1="336" x2="503.9" y2="338.7"/>
		<line class="st13" x1="511.2" y1="336" x2="511.2" y2="338.7"/>
		<line class="st13" x1="489.1" y1="345.7" x2="489.1" y2="348.4"/>
		<line class="st13" x1="496.5" y1="345.7" x2="496.5" y2="348.4"/>
		<line class="st13" x1="503.9" y1="345.7" x2="503.9" y2="348.4"/>
		<line class="st13" x1="511.2" y1="345.7" x2="511.2" y2="348.4"/>
		<line class="st16" x1="434.6" y1="242.3" x2="434.6" y2="242.8"/>
		<line class="st16" x1="445" y1="242.3" x2="445" y2="242.8"/>
		<line class="st16" x1="455.4" y1="242.3" x2="455.4" y2="242.8"/>
		<line class="st16" x1="465.8" y1="242.3" x2="465.8" y2="242.8"/>
		<line class="st16" x1="434.6" y1="253.8" x2="434.6" y2="254.3"/>
		<line class="st16" x1="445" y1="253.8" x2="445" y2="254.3"/>
		<line class="st16" x1="455.4" y1="253.8" x2="455.4" y2="254.3"/>
		<line class="st16" x1="465.8" y1="253.8" x2="465.8" y2="254.3"/>
		<line class="st16" x1="434.6" y1="265.3" x2="434.6" y2="265.8"/>
		<line class="st16" x1="445" y1="265.3" x2="445" y2="265.8"/>
		<line class="st16" x1="455.4" y1="265.3" x2="455.4" y2="265.8"/>
		<line class="st16" x1="465.8" y1="265.3" x2="465.8" y2="265.8"/>
		<line class="st16" x1="434.6" y1="276.8" x2="434.6" y2="277.3"/>
		<line class="st16" x1="445" y1="276.8" x2="445" y2="277.3"/>
		<line class="st16" x1="455.4" y1="276.8" x2="455.4" y2="277.3"/>
		<line class="st16" x1="465.8" y1="276.8" x2="465.8" y2="277.3"/>
		<line class="st16" x1="434.6" y1="288.3" x2="434.6" y2="288.8"/>
		<line class="st16" x1="445" y1="288.3" x2="445" y2="288.8"/>
		<line class="st16" x1="455.4" y1="288.3" x2="455.4" y2="288.8"/>
		<line class="st16" x1="465.8" y1="288.3" x2="465.8" y2="288.8"/>
		<line class="st16" x1="434.6" y1="299.8" x2="434.6" y2="300.3"/>
		<line class="st16" x1="445" y1="299.8" x2="445" y2="300.3"/>
		<line class="st16" x1="288.5" y1="265.7" x2="288.5" y2="266"/>
		<line class="st16" x1="299.3" y1="265.7" x2="299.3" y2="266"/>
		<line class="st16" x1="288.5" y1="273" x2="288.5" y2="273.3"/>
		<line class="st16" x1="299.3" y1="273" x2="299.3" y2="273.3"/>
		<line class="st16" x1="288.5" y1="280.3" x2="288.5" y2="280.6"/>
		<line class="st16" x1="299.3" y1="280.3" x2="299.3" y2="280.6"/>
		<line class="st16" x1="288.5" y1="287.6" x2="288.5" y2="287.9"/>
		<line class="st16" x1="299.3" y1="287.6" x2="299.3" y2="287.9"/>
		<line class="st16" x1="288.5" y1="294.9" x2="288.5" y2="295.2"/>
		<line class="st16" x1="299.3" y1="294.9" x2="299.3" y2="295.2"/>
		<line class="st16" x1="288.5" y1="302.2" x2="288.5" y2="302.5"/>
		<line class="st16" x1="299.3" y1="302.2" x2="299.3" y2="302.5"/>
		<line class="st16" x1="455.4" y1="299.8" x2="455.4" y2="300.3"/>
		<line class="st16" x1="465.8" y1="299.8" x2="465.8" y2="300.3"/>
		<line class="st16" x1="434.6" y1="323.1" x2="434.6" y2="323.6"/>
		<line class="st16" x1="445" y1="323.1" x2="445" y2="323.6"/>
		<line class="st16" x1="455.4" y1="323.1" x2="455.4" y2="323.6"/>
		<line class="st16" x1="465.8" y1="323.1" x2="465.8" y2="323.6"/>
		<line class="st16" x1="434.6" y1="334.6" x2="434.6" y2="335.1"/>
		<line class="st16" x1="445" y1="334.6" x2="445" y2="335.1"/>
		<line class="st16" x1="455.4" y1="334.6" x2="455.4" y2="335.1"/>
		<line class="st16" x1="465.8" y1="334.6" x2="465.8" y2="335.1"/>
		<line class="st16" x1="434.6" y1="311.3" x2="434.6" y2="311.8"/>
		<line class="st16" x1="445" y1="311.3" x2="445" y2="311.8"/>
		<line class="st16" x1="455.4" y1="311.3" x2="455.4" y2="311.8"/>
		<line class="st16" x1="465.8" y1="311.3" x2="465.8" y2="311.8"/>
		<line class="st16" x1="434.6" y1="322.8" x2="434.6" y2="323.3"/>
		<line class="st16" x1="445" y1="322.8" x2="445" y2="323.3"/>
		<line class="st16" x1="455.4" y1="322.8" x2="455.4" y2="323.3"/>
		<line class="st16" x1="465.8" y1="322.8" x2="465.8" y2="323.3"/>
		<line class="st16" x1="434.6" y1="346.1" x2="434.6" y2="346.6"/>
		<line class="st16" x1="445" y1="346.1" x2="445" y2="346.6"/>
		<line class="st16" x1="455.4" y1="346.1" x2="455.4" y2="346.6"/>
		<line class="st16" x1="465.8" y1="346.1" x2="465.8" y2="346.6"/>
		<line class="st15" x1="262" y1="189" x2="260.5" y2="194.8"/>
		<line class="st15" x1="324.5" y1="212" x2="323.4" y2="216"/>
		<line class="st15" x1="327.9" y1="212" x2="327.4" y2="213.9"/>
		<line class="st15" x1="265" y1="189" x2="264" y2="193.2"/>
		<polyline class="st13" points="337.4,354.1 337.4,246.7 377.2,246.7 377.2,353.7 		"/>
		<path class="st13" d="M360.4,354.1"/>
		<line class="st13" x1="316.8" y1="314.6" x2="316.8" y2="354.2"/>
		<polyline class="st13" points="306,308.8 306,258.2 281.5,258.2 281.5,305.3 281.5,308.8 		"/>
		<line class="st15" x1="342.3" y1="253.3" x2="372.3" y2="253.3"/>
		<line class="st15" x1="342.3" y1="260.5" x2="372.3" y2="260.5"/>
		<line class="st15" x1="342.3" y1="267.8" x2="372.3" y2="267.8"/>
		<line class="st15" x1="342.3" y1="275" x2="372.3" y2="275"/>
		<line class="st15" x1="342.3" y1="282.2" x2="372.3" y2="282.2"/>
		<line class="st15" x1="342.3" y1="289.5" x2="372.3" y2="289.5"/>
		<line class="st15" x1="342.3" y1="296.7" x2="372.3" y2="296.7"/>
		<line class="st15" x1="342.3" y1="304" x2="372.3" y2="304"/>
		<line class="st15" x1="342.3" y1="311.2" x2="372.3" y2="311.2"/>
		<line class="st15" x1="342.3" y1="318.4" x2="372.3" y2="318.4"/>
		<line class="st15" x1="342.3" y1="325.7" x2="372.3" y2="325.7"/>
		<line class="st15" x1="342.3" y1="332.9" x2="372.3" y2="332.9"/>
		<line class="st15" x1="342.3" y1="340.1" x2="372.3" y2="340.1"/>
		<line class="st15" x1="342.3" y1="347.4" x2="372.3" y2="347.4"/>
		<line class="st13" x1="299.3" y1="253.8" x2="299.3" y2="258.2"/>
		<line class="st15" x1="316.8" y1="233.5" x2="303.5" y2="246.8"/>
		<line class="st15" x1="327.8" y1="229.5" x2="318.2" y2="239.1"/>
		<line class="st15" x1="315.7" y1="241.6" x2="314.3" y2="243"/>
		<line class="st15" x1="537.2" y1="233.5" x2="537.2" y2="234.2"/>
		<line class="st15" x1="537.2" y1="223.5" x2="537.2" y2="230.5"/>
		<line class="st15" x1="550.4" y1="200.5" x2="551.1" y2="204.4"/>
		<line class="st17" x1="489.4" y1="427.3" x2="489.5" y2="427.3"/>
		<circle class="st15" cx="491.2" cy="427.3" r="4.6"/>
		<line class="st17" x1="492.8" y1="427.3" x2="492.8" y2="427.3"/>
		<path class="st18" d="M477.5,435.5h17.8c2.3,0,4.1-1.9,4.1-4.2v-7.9c0-2.4-1.9-4.3-4.1-4.3h-11.8h-11.8c-2.3,0-4.1,1.9-4.1,4.3
			v7.9c0,2.4,1.8,4.2,4.1,4.2h1.9"/>
		<path class="st15" d="M480.3,427.3c0-2.5-2-4.6-4.6-4.6c-2.5,0-4.6,2-4.6,4.6c0,1.9,1.2,3.5,2.8,4.2v4.4c0,0.7,0.5,1.2,1.2,1.2h1
			c0.7,0,1.2-0.5,1.2-1.2v-4.4C479.1,430.9,480.3,429.2,480.3,427.3z"/>
		<path class="st15" d="M473.3,427.8c0.3,0.3,0.7,1,0.7,1v2.7"/>
		<path class="st15" d="M478.2,427.8c-0.3,0.3-0.7,1-0.7,1v2.7"/>
		<path class="st18" d="M475.7,437.2c0,12.1-9.8,21.9-21.9,21.9c-12.1,0-21.9-9.8-21.9-21.9v-40"/>
		<line class="st15" x1="474" y1="432.8" x2="477.5" y2="432.8"/>
		<line class="st15" x1="483.5" y1="419.1" x2="483.5" y2="435.5"/>
	</g>
</g>
<g id="main">
	<g id="colors">
		<g id="XMLID_3_">
			<g>
				<path class="st19" d="M588.3,363c3.3,0,6,2.7,6,6c0,1.7-0.7,3.2-1.8,4.2c-1.1,1.1-2.6,1.8-4.2,1.8h-13.1h-12.4h0h-228h0h-95.8
					h-13.1c-3.3,0-6-2.7-6-6c0-1.7,0.7-3.2,1.8-4.2c1.1-1.1,2.6-1.8,4.2-1.8h21.8h43.7h112.4h56.5h38.7h22.5h38h8.9H588.3z"/>
				<path class="st19" d="M575.1,375v94.2c0,3.4-2.8,6.2-6.2,6.2c-3.4,0-6.2-2.8-6.2-6.2V375H575.1z"/>
				<polygon class="st20" points="573.6,340.3 573,347.3 554.6,347.3 554.1,340.3 				"/>
				<polygon class="st21" points="573,347.3 572.6,351.9 555,351.9 554.6,347.3 				"/>
				<path class="st20" d="M572.6,351.9l-0.5,6.8c-0.2,2.4-1.8,4.3-3.8,4.3h-8.9c-2,0-3.6-1.8-3.8-4.3l-0.5-6.8H572.6z"/>
				<rect x="334.8" y="375" class="st19" width="228" height="22.1"/>
				<path class="st22" d="M521.3,363h-22.5c0.2-4.5,5.2-8,11.2-8S521.1,358.5,521.3,363z"/>
				<path class="st22" d="M492.9,328v8.7c0,4.4-3.6,8-8,8h-4.6l-0.6-8l-19.1,1.4l0.5,6.5l-0.9,0.1h-17.5h-21.5h-21.5l0.5-3.4
					l-17.7-2.4l-0.8,5.8l-0.3,0h-2.4c-4.4,0-8-3.6-8-8v-7.3V328H492.9z"/>
				<path class="st22" d="M492.9,270.4V328h-122v-57.7c0-4.4,3.6-8,8-8h106C489.3,262.4,492.9,266,492.9,270.4z M487,322.5v-50.9
					c0-2.1-1.7-3.8-3.8-3.8H380.4c-2.1,0-3.8,1.7-3.8,3.8v50.9H487z"/>
				<path class="st23" d="M487,271.6v50.9H376.7v-50.9c0-2.1,1.7-3.8,3.8-3.8h102.8C485.3,267.9,487,269.6,487,271.6z"/>
				<path class="st24" d="M484.4,349.6c0.2,2.1-1.4,3.9-3.5,4.1l-15.3,1.1c2.1-0.2,3.7-2,3.5-4.1l7.7-0.6l3.8-0.3L484.4,349.6z"/>
				<path class="st24" d="M480.3,346.1l0.3,3.8l-3.8,0.3l-7.7,0.6c0.2,2.1-1.4,3.9-3.5,4.1c-2.1,0.2-3.9-1.4-4.1-3.5l-0.5-6.7
					l-0.5-6.5l19.1-1.4l0.6,8L480.3,346.1z"/>
				<path class="st22" d="M460.1,363h-56.5c0-3.5,2.4-6.3,5.4-6.3c4.3,0,7.7-1.8,10.1-5c1.4-1.9,1.4-4.2,2-7h21.5
					c1.6,7.3,5.3,12,12.1,12c1.5,0,2.8,0.7,3.8,1.8C459.5,359.7,460.1,361.2,460.1,363z"/>
				<path class="st25" d="M400.1,341.3l-0.5,3.4l-1.2,8.8c-0.3,1.9-2,3.3-4,3c-1.9-0.3-3.3-2-3-4l-7.2-1l-3.5-0.5l0.5-3.5l0.4-2.9
					l0.8-5.8L400.1,341.3z"/>
				<path class="st25" d="M394.5,356.6l-14.2-1.9c-1.9-0.3-3.3-2-3-4l3.5,0.5l3.5,0.5l7.2,1C391.2,354.5,392.5,356.3,394.5,356.6z"
					/>
				<path class="st26" d="M350.7,335.2v18.6c0,4.5-3.7,8.2-8.2,8.2h-7.6c-4.5,0-8.2-3.7-8.2-8.2v-18.6H350.7z"/>
				<path class="st19" d="M334.7,425.2v50.2h-95.8v-50.2H334.7z M322.4,465.5v-30.5h-71.1v30.5H322.4z"/>
				<path class="st19" d="M334.7,375v50.2h-95.8V375H334.7z M322.4,415.3v-30.4h-71.1v30.4H322.4z"/>
				<rect x="251.2" y="435.1" class="st19" width="71.1" height="30.5"/>
				<rect x="251.2" y="384.9" class="st19" width="71.1" height="30.5"/>
				<path class="st27" d="M293,276.5l8.6,8.6l-6.2,6.2L285,301.7l-6.2,6.2l-8.6-8.6c-4.6-4.6-5.9-11.3-3.7-17h0l9.6-9.6l0,0
					c1.8-0.7,3.7-1,5.6-1C285.7,271.8,289.9,273.3,293,276.5z"/>
				<path class="st28" d="M295.4,291.3c1.3,1.3,2.1,3.1,2.1,5.1c0,4.1-3.3,7.4-7.4,7.4c-2,0-3.8-0.8-5.1-2.1L295.4,291.3z"/>
				<path class="st27" d="M291.2,360.8v2.2h-43.7v-2.2c0-3.9,3.2-7.1,7.1-7.1h6h17.5h6C288,353.7,291.2,356.8,291.2,360.8z"/>
				<path class="st27" d="M278.1,353.7h-17.5c0-4.8,3.9-8.8,8.8-8.8C274.2,344.9,278.1,348.8,278.1,353.7z"/>
				<path class="st27" d="M276,272.8l-9.6,9.6c-2.6-2.6-2.6-6.9,0-9.6C269.1,270.1,273.4,270.1,276,272.8L276,272.8L276,272.8z"/>
				<path class="st29" d="M238.9,306.9c3.9,0,7,3.1,7,7c0,3.8-3.1,6.9-7,6.9c-3.8,0-6.9-3.1-6.9-6.9
					C231.9,310,235.1,306.9,238.9,306.9z"/>
			</g>
			<g>
			</g>
		</g>
	</g>
	<g id="shadows">
		<rect x="334.7" y="376.7" class="st30" width="227.6" height="20"/>
		<path class="st31" d="M350.7,335.2h-23.6v3.5h4.6v6.9c0,1.9,1.6,3.5,3.5,3.5c1.9,0,3.5-1.6,3.5-3.5v-6.9h12V335.2z"/>
		<polygon class="st32" points="404.8,267.9 376.9,295.7 376.9,314.6 423.7,267.9 		"/>
		<polygon class="st32" points="435.9,267.9 380.7,323.1 419,323.1 474.5,267.5 		"/>
		<polygon class="st8" points="384.8,328 373.1,339.8 373.1,342.8 375.1,344.8 381.6,344.8 382.4,338.9 386.5,339.5 398.1,327.8 		
			"/>
		<polygon class="st8" points="401,329 389.9,340.1 392.9,340.1 404.4,328.7 		"/>
		<path class="st33" d="M465.8,337.7l13.8-1l0.6,8h4.6l6.2-2.9l1.8-5.1l0-8.7h-6.5h-5.7c-0.5,1.9-1.8,3.6-3.3,5
			C474.3,335.8,469.8,337.4,465.8,337.7"/>
		<rect x="400.3" y="341.2" class="st34" width="60.2" height="3"/>
		<path class="st33" d="M461.8,352.5c2.1,0,14.1-1.5,14.7-15.6l3.1-0.2l1,12.9h3.8l-0.4,2l-2.2,2.1l-16.2,1.2L461.8,352.5z"/>
		<path class="st35" d="M461.4,349.6l0.4-1.5c1.2-4.3,4.4-7.8,8.7-9.2l4.8-1.6l-14.7,0.8L461.4,349.6z"/>
		<path class="st33" d="M380.4,351.1c8.8,1.9,16.7,1.6,19.4-10l-2.2,14.2l-2.7,1.2l-16.2-2.5l-1.6-3.1L380.4,351.1z"/>
		<path class="st5" d="M381.1,348.3l1.3-9.4l10.2,1.4l-2.8,0.3c-3.3,0.4-6.3,2.5-7.6,5.5L381.1,348.3z"/>
		<rect x="421.1" y="343.9" class="st36" width="21.7" height="6.4"/>
		<rect x="238.9" y="374.8" class="st36" width="95.9" height="5.7"/>
		<path class="st33" d="M265.9,291.7c14,12.1,31.5-1.3,30.4-12l5.3,5.3c-4.7,4.7-9.4,9.4-14.2,14.2c-2.9,2.9-5.8,5.8-8.7,8.7
			c-4.1-4.4-8.2-8.7-12.3-13L265.9,291.7z"/>
		<path class="st37" d="M285,354.2c0-0.1,0-0.3,0-0.5l0.8,0.5H285z"/>
		<path class="st33" d="M290,356.8l-1-0.6l-3.2-2H285c0,1.1-0.8,2.1-2.2,2.8c-6.3,3.5-24.6,3-35.2,2.5l-0.5,3.5h44.8L290,356.8z"/>
		<path class="st8" d="M249.7,354.2H285c0,1.1-0.8,2.1-2.2,2.8h-33.1V354.2z"/>
		<polygon class="st35" points="289,354.2 289,356.2 285.8,354.2 		"/>
		<path class="st38" d="M491.5,375c27.5,0.3,52.4-1.1,53.2-12h47.3l2.2,6l-3,5.2l-43.8,0.8H491.5z"/>
		<path class="st37" d="M563.8,373.4H438c-4.2-0.2-8.5-0.3-12.7,0h-90.5v7.1h127.3c9,0,17.9,2.9,24.9,8.5c2.6,2.1,4.7,4.3,6,6.5
			h69.8l0.7-15h0.3V373.4z"/>
		<polygon class="st35" points="274,475.4 238.9,475.4 273.9,475.4 		"/>
		<path class="st38" d="M322.4,409.6c5.5-0.6,9.7-2.4,12.3-3.8l0,19.3h-55.6l-40.2,0v-5.5c19.5,0.1,83.5-4.3,83.5-4.3V409.6z"/>
		<path class="st31" d="M247.8,472.2c-1.8-0.2-3.4-1.1-4.5-2.4c-0.9-1.1-1.5-2.4-1.6-3.8l-2.9-29.4v33.3v5.5l35,0L247.8,472.2z"/>
		<path class="st38" d="M334.7,456.1v19.3h-60.8l-26.1-3.2c-1.8-0.2-3.4-1.1-4.5-2.4c23.3-0.4,79-4.3,79-4.3v-5.7
			C327.9,459.2,332.1,457.4,334.7,456.1z"/>
		<path class="st33" d="M573.9,340.3h-4.8c0.1,1.2,0.2,2.4,0.2,3.5c-0.1,4.5-1.5,8.6-3.7,11.9c-1.2,1.8-3.3,2.9-5.4,2.9h-3.1v3.9
			c-0.4,0.1-0.9,0.3-1.3,0.4L555,363l2.1,0v0h15v-4.5h0l1.5-14.7L573.9,340.3z"/>
		<path class="st35" d="M569.2,340.3c0.1,1.2,0.2,2.4,0.2,3.5h-15.3v-3.5H569.2z"/>
		<polygon class="st12" points="573.9,340.3 573.9,343.8 573.6,343.8 		"/>
		<rect x="403.6" y="357.7" class="st8" width="55.1" height="5.3"/>
		<path class="st31" d="M286.5,272.7l-8.6-0.9l-4,3.4v0c0,0.3,0,0.7,0.1,1l-1.8-0.4l-7.2,7.8l0.4,5.5l7-7.2c1.2-1.3,3.3-1.3,4.5,0
			c0.1,0.1,0.3,0.3,0.4,0.4c1.5,1.2,3.4,1.9,5.5,1.9c3.4,0,6.4-1.9,7.9-4.8c0.5-0.9,0.8-2,1-3L286.5,272.7z"/>
		<path class="st32" d="M479.2,392.1h-60.7h-7.2h-60.7c-2.8,0-7.3,0.5-11.1,5h71.8h7.2h71.8C486.5,392.6,482,392.1,479.2,392.1z"/>
		<circle class="st36" cx="238.9" cy="313.9" r="1.8"/>
		<path class="st35" d="M233.8,316.1c0-3.4,2.8-6.2,6.2-6.2s6.2,2.8,6.2,6.2l-1.8-7.3l-5.9-2.5l-4.8,2.9l-1.9,4.3L233.8,316.1z"/>
		<path class="st37" d="M243.7,310.3c0.8,3.3-1.3,6.7-4.6,7.5c-3.3,0.8-6.7-1.3-7.5-4.6l3.4,6.7l6.3,1.1l4-3.9l0.8-4.7L243.7,310.3z
			"/>
		<path class="st37" d="M291.2,300.1l5.9-5.9l-1.7-3l-7.2,7.3c-0.1-0.1-0.1-0.1-0.2-0.2l-1.5,1.8l0,0l0,0l-0.9,1.1l-0.6,0.8l2.8,1.2
			l6.1-0.5l3.3-3.1v-1.4C296.1,299.8,293.5,300.6,291.2,300.1z"/>
		<ellipse class="st31" cx="280.8" cy="277" rx="3.2" ry="2"/>
		<polygon class="st8" points="265.5,281.8 264.5,276.6 270.2,269.4 274.6,272.4 		"/>
		<ellipse transform="matrix(0.9208 -0.39 0.39 0.9208 -114.6355 131.8696)" class="st8" cx="267.4" cy="348.2" rx="3.9" ry="2.1"/>
		<path class="st31" d="M594.6,367c-0.1,0-0.1,0-0.2,0H227.9c-1.7,0-3.2,0.7-4.2,1.8c-1.1,1.1-1.8,2.6-1.8,4.2c0,1.1-2.2-9,1-9
			h366.5C591.7,364,593.6,365.2,594.6,367z"/>
		<rect x="562.3" y="374.7" class="st36" width="12.9" height="7"/>
		<path class="st38" d="M562.8,454.2c0,6.3,12.4,5.9,12.4-29c0,35.8,0,50.2,0,50.2l-6.2,0l-6.2,0V454.2z"/>
		<path class="st38" d="M252.2,458.5c0,4.5,70.2,5.8,70.2-15.2c0,28.2,0,22.2,0,22.2h-70.2V458.5z"/>
		<path class="st38" d="M252.2,408.5c0,4.5,70.2,5.8,70.2-15.2c0,28.2,0,22.2,0,22.2h-70.2V408.5z"/>
		<path class="st31" d="M322.4,435.1h-71.1v2.8l-0.2,0l2.2,19.4l2.5-15.4c0.2-1.4,1.4-2.4,2.8-2.4h63.9V435.1z"/>
		<path class="st31" d="M322.4,384.9h-71.1v4.4l0.9,16.6l3.3-14.4c0.3-1.3,1.4-2.2,2.7-2.2h64.2V384.9z"/>
		<path class="st31" d="M335.2,425.8h-95.9v3.4l1.3,11.8l2-9.4c0.3-1.4,1.5-2.4,3-2.4h89.6V425.8z"/>
		<path class="st6" d="M328.2,352.6c0,3.8,21.1,5.7,21.1-9c0,10.2,0,14.7,0,14.7l-3.4,2.9h-15.8l-4.1-5l1.1-2.5L328.2,352.6z"/>
		<path class="st9" d="M384.3,347.7h-2.4c-3,0-5.6-1.6-7-4.1c-0.7-1.2-1-2.5-1-3.9v-7.3v-61c0-3.3,2.7-6,6-6h108c1.4,0,2.8,0.4,4,1
			c-1.4-2.4-4-4-7-4h-106c-4.4,0-8,3.6-8,8v59v7.3c0,3,1.6,5.6,4,6.9c1.2,0.7,2.5,1.1,4,1.1h2.4"/>
		<path class="st9" d="M489,271.6v51.2c0,1-0.8,1.7-1.7,1.7H378.7c-1.7,0-3-1.3-3-3l0,0H486v-52.9c0-0.2,0-0.5-0.1-0.7
			C487.7,268.3,489,269.8,489,271.6z"/>
		
			<ellipse transform="matrix(0.9798 -0.1999 0.1999 0.9798 -61.2569 108.5744)" class="st8" cx="507.1" cy="357.7" rx="5" ry="1.8"/>
		<path class="st39" d="M560.5,343.4h0.9c1.4,0,2.5,1.1,2.5,2.4v6c0,1.4-1.1,2.4-2.5,2.4l0,0c-1.2,0-2.2-0.9-2.4-2.1l-0.9-6
			C557.8,344.8,559,343.4,560.5,343.4z"/>
	</g>
	<g id="lines">
		<path class="st40" d="M297.5,296.4c0,4.1-3.3,7.4-7.4,7.4c-2,0-3.8-0.8-5.1-2.1l10.4-10.4C296.7,292.6,297.5,294.4,297.5,296.4z"
			/>
		<path class="st41" d="M243,308.3"/>
		<path class="st40" d="M266.5,272.8c-18.9-5.4-25.4,22.1-25.2,34.7"/>
		<path class="st40" d="M236.4,320.4c-1.4,12.4,9.6,12.3,17,12.6c10.6,0.4,16.9,2.8,16.9,12"/>
		<circle class="st42" cx="431.8" cy="336.7" r="3.2"/>
		<path class="st43" d="M277.6,450.3c5.8,0,11.7,0,17.5,0"/>
		<path class="st43" d="M277.6,400.1c5.8,0,11.7,0,17.5,0"/>
		<path class="st40" d="M483.3,267.9H380.4c-2.1,0-3.8,1.7-3.8,3.8v50.9H487v-50.9C487,269.6,485.3,267.9,483.3,267.9z"/>
		<line class="st40" x1="409" y1="357.7" x2="424.2" y2="357.7"/>
		<line class="st40" x1="429.1" y1="357.7" x2="431.8" y2="357.7"/>
		<line class="st40" x1="573.1" y1="347.3" x2="554.5" y2="347.3"/>
		<line class="st40" x1="572.8" y1="351.9" x2="554.8" y2="351.9"/>
		<line class="st40" x1="384.1" y1="375" x2="370.6" y2="388.5"/>
		<line class="st40" x1="391.9" y1="375" x2="384.8" y2="382.1"/>
		<line class="st40" x1="328.8" y1="425.2" x2="328.8" y2="436.1"/>
		<line class="st40" x1="507.7" y1="397.1" x2="512.6" y2="392.1"/>
		<path class="st40" d="M540.9,375"/>
		<path class="st44" d="M480.6,349.9l-0.3-3.8l-0.7-9.4l-19.1,1.4l1,13.2c0.2,2.1,2,3.7,4.1,3.5c2.1-0.2,3.7-2,3.5-4.1l7.7-0.6
			L480.6,349.9l3.8-0.3c0.2,2.1-1.4,3.9-3.5,4.1l-15.3,1.1"/>
		<path class="st44" d="M394.5,356.6l-14.2-1.9c-1.9-0.3-3.3-2-3-4l3.5,0.5l3.5,0.5l7.2,1C391.2,354.5,392.5,356.3,394.5,356.6
			s3.7-1.1,4-3l1.6-12.3l-17.7-2.4l-1.2,8.8l-0.5,3.5"/>
		<line class="st44" x1="463.9" y1="342.8" x2="477.1" y2="341.8"/>
		<line class="st44" x1="464.6" y1="347" x2="471.4" y2="346.5"/>
		<line class="st44" x1="473.2" y1="346.4" x2="477.3" y2="346"/>
		<g>
			<line class="st45" x1="460.1" y1="344.7" x2="399.3" y2="344.7"/>
			<path class="st45" d="M381.3,344.7h-2.4c-4.4,0-8-3.6-8-8v-7.3v-59c0-4.4,3.6-8,8-8h106c4.4,0,8,3.6,8,8v66.3c0,4.4-3.6,8-8,8
				h-5.5"/>
			<line class="st46" x1="492.8" y1="328" x2="370.8" y2="328"/>
			<path class="st46" d="M278.1,353.7h6c3.9,0,7.1,3.2,7.1,7.1v2.2h-43.7v-2.2c0-3.9,3.2-7.1,7.1-7.1h6"/>
			<path class="st46" d="M278.1,353.7h-17.5c0-4.8,3.9-8.8,8.8-8.8S278.1,348.8,278.1,353.7z"/>
			<path class="st46" d="M276,272.8l-9.6,9.6c-2.6-2.6-2.6-6.9,0-9.6C269.1,270.1,273.4,270.1,276,272.8z"/>
			<circle class="st46" cx="238.9" cy="313.9" r="7"/>
			<line class="st46" x1="265.7" y1="345.7" x2="241" y2="321.1"/>
			<path class="st46" d="M266.4,282.3c-2.1,5.7-0.9,12.4,3.7,17l8.6,8.6l6.2-6.2l10.4-10.4l6.2-6.2l-8.6-8.6
				c-3.2-3.1-7.3-4.7-11.4-4.7c-1.9,0-3.8,0.3-5.6,1"/>
			<line class="st46" x1="241.4" y1="307.4" x2="266.4" y2="282.3"/>
			<path class="st46" d="M342.5,362h-7.6c-4.5,0-8.2-3.7-8.2-8.2v-18.7h24v18.7C350.7,358.3,347,362,342.5,362z"/>
			<path class="st46" d="M588.3,375H225.8c-3.3,0-6-2.7-6-6l0,0c0-3.3,2.7-6,6-6h362.5c3.3,0,6,2.7,6,6l0,0
				C594.3,372.3,591.6,375,588.3,375z"/>
			<path class="st46" d="M350.7,353.7h2.2c1.8,0,3.4-0.7,4.6-1.9c1.2-1.2,1.9-2.8,1.9-4.6c0-3.6-2.9-6.5-6.5-6.5h-2.2"/>
			<rect x="238.9" y="375" class="st46" width="95.8" height="100.4"/>
			<line class="st46" x1="334.7" y1="425.2" x2="238.9" y2="425.2"/>
			<rect x="251.2" y="435.1" class="st46" width="71.1" height="30.4"/>
			<rect x="251.2" y="384.9" class="st46" width="71.1" height="30.4"/>
			<path class="st46" d="M442.6,344.7c1.6,7.3,5.3,12,12.1,12c1.5,0,2.8,0.7,3.8,1.8c1,1.2,1.6,2.7,1.6,4.5h-56.5
				c0-3.5,2.4-6.3,5.4-6.3c4.3,0,7.7-1.8,10.1-5c1.4-1.9,1.4-4.2,2-7"/>
			<rect x="562.8" y="375" class="st46" width="12.4" height="100.4"/>
			<rect x="334.8" y="375" class="st47" width="228" height="22.1"/>
			<path class="st46" d="M559.3,363h8.9c2,0,3.6-1.8,3.8-4.3l1.5-18.4h-19.5l1.5,18.4C555.7,361.2,557.4,363,559.3,363z"/>
			<line class="st46" x1="214.9" y1="475.4" x2="608.1" y2="475.4"/>
			<line class="st46" x1="207.4" y1="475.4" x2="199.4" y2="475.4"/>
			<line class="st46" x1="615.1" y1="475.4" x2="615.1" y2="475.4"/>
			<path class="st46" d="M498.8,363c0.2-4.4,5.2-8,11.2-8s11,3.6,11.3,8"/>
			<line class="st46" x1="572.1" y1="323.6" x2="569.8" y2="340.3"/>
			<line class="st46" x1="562.9" y1="340.3" x2="562.9" y2="328.8"/>
		</g>
		<line class="st44" x1="384.3" y1="347.2" x2="392.9" y2="348.3"/>
		<line class="st44" x1="385" y1="343.5" x2="395.5" y2="344.9"/>
		<line class="st40" x1="283.1" y1="295.5" x2="283.1" y2="295.5"/>
		<line class="st40" x1="280.6" y1="298" x2="274.9" y2="303.8"/>
	</g>
</g>
</svg>
