<?xml version="1.0" encoding="UTF-8"?>
<!DOCTYPE svg PUBLIC "-//W3C//DTD SVG 1.0//EN" "http://www.w3.org/TR/2001/REC-SVG-20010904/DTD/svg10.dtd">
<!-- Creator: CorelDRAW 2017 -->
<svg xmlns="http://www.w3.org/2000/svg" xml:space="preserve" width="356px" height="200px" version="1.0" shape-rendering="geometricPrecision" text-rendering="geometricPrecision" image-rendering="optimizeQuality" fill-rule="evenodd" clip-rule="evenodd"
viewBox="0 0 35600 20025"
 xmlns:xlink="http://www.w3.org/1999/xlink">
 <g id="Layer_x0020_1">
  <metadata id="CorelCorpID_0Corel-Layer"/>
  <g id="_3021048000112">
   <path fill="#E6E7E8" d="M0 0l35600 0 0 20025 -35600 0 0 -20025z"/>
   <path fill="#373435" fill-opacity="0.078431" d="M28116 8926l159 -151 0 -67 2 -2 1 -1 1 -2 -1 -3 0 -2 -1 -3 -1 -3 -1 -2 0 -5 0 0 1 -2 1 -2 0 -1 0 0 0 0 -2 0 0 -76 2 -2 1 -2 1 -2 -1 -2 0 -3 -1 -2 -1 -3 -1 -3 0 -4 0 -1 1 -2 1 -1 1 -1 0 -1 -1 0 -2 1 0 -77 2 -2 -2 1 0 -103 2 -2 -2 1 0 -104 2 -2 -2 1 0 -103 2 -3 -2 2 0 -104 2 -2 -2 1 0 -103 2 -2 -2 1 0 -122 -139 39 139 -132 -3651 1045 -159 -93 -209 198 -886 254 -616 -385 9 -17 -180 -113 1631 -1547 -2844 814 -2172 -1356 -3880 3681 0 -166 0 -297 0 -288 0 -271 1 -247 1 -212 2 -171 3 -120 3 -60 35 -155 64 -144 90 -129 114 -111 -6463 6130 -84 -5 -110 -1 -113 3 -114 3 -115 0 -113 -7 -112 -18 -110 -31 -19 -9 6736 -6389 -228 0 -228 0 -227 0 -228 0 -227 0 -228 0 -227 0 -228 0 -228 0 -227 0 -228 0 -227 0 -228 0 -228 0 -59 0 1497 -1420 39 -45 29 -52 19 -58 7 -63 -8 -68 -17 -52 -26 -49 -35 -44 -43 -38 -51 -29 -56 -19 -63 -6 -67 7 -125 54 -1984 1882 -194 0 -228 0 -228 0 -227 0 -228 0 -27 0 3198 -3034 21 -35 21 -36 20 -37 20 -37 20 -38 20 -37 21 -37 21 -37 414 -748 11 -17 13 -15 -4330 4108 -125 0 -228 0 -228 0 -227 0 -9 0 1462 -1388 80 -83 40 -106 0 -113 -37 -107 -71 -86 -104 -52 -136 -4 -126 49 -1780 1689 6 -69 9 -80 10 -75 10 -68 9 -54 22 -113 26 -111 30 -110 34 -109 38 -107 42 -106 45 -104 49 -102 53 -100 35 -63 1431 -1357 -8 -20 -17 -33 -22 -42 -26 -47 -27 -47 -25 -44 -20 -37 -15 -25 -20 -38 -21 -37 -20 -38 -21 -37 -21 -38 -21 -37 -21 -38 -22 -39 -20 -37 -21 -37 -20 -37 -21 -36 -20 -37 -21 -37 -20 -37 -20 -38 -20 -34 -24 -39 -22 -43 -19 -44 -10 -43 3 -41 19 -35 -9019 8555 0 8024 23659 0 5921 -5617 -184 57 184 -175 0 -78 3 -2 -3 1 0 -120 3 -3 -3 2 0 -121 3 -2 -3 1 0 -120 3 -3 -3 2 0 -121 3 -2 -3 1 0 -120 3 -3 -3 1 0 -120 3 -3 -3 2 0 -121 3 -2 -3 1 0 -142 -161 46 161 -153 -1607 460 1528 -1450 -149 113 -171 81 -161 46 142 -135 106 -135 75 -156 42 -171 8 -183 -21 -153 370 -351 -867 217 -1080 -632 425 -403 0 -102 0 -66 2 -2 2 -1 0 -2 0 -3 -1 -2 -1 -3 -1 -3 -1 -2 0 -5 0 0 1 -2 1 -2 1 -1 0 0 -1 0 -2 0 0 -76 2 -2 2 -2 0 -2 0 -2 -1 -3 -1 -2 -1 -3 -1 -3 0 -4 0 -1 1 -2 1 -1 1 -1 0 -1 -1 0 -2 1 0 -77 2 -2 2 -2 0 -2 0 -2 -1 -2 -1 -3 -1 -3 -1 -2 0 -5 0 0 1 -2 1 -2 1 -1 0 0 -1 0 -2 0 0 -76 2 -3 2 -1 0 -2 0 -2 -1 -3 -1 -2 -1 -3 -1 -3 0 -4 0 -1 1 -2 1 -1 1 -1 0 -1 -1 0 -2 1 0 -77 2 -2 2 -2 0 -2 0 -2 -1 -2 -1 -3 -1 -3 -1 -2 0 -5 0 0 1 -2 1 -2 1 -1 0 0 -1 0 -2 0 0 -76 2 -3 2 -1 0 -2 0 -2 -1 -3 -1 -2 -1 -3 -1 -3 0 -4 0 -1 1 -2 1 -1 1 -1 0 -1 -1 0 -2 0 0 -76 2 -2 2 -2 0 -1 0 -3 -1 -2 -1 -3 -1 -3 -1 -2 0 -5 0 0 1 -2 1 -2 1 -1 0 -1 -1 0 -2 1 0 -76 2 -3 2 -1 0 -2 0 -2 -1 -3 -1 -2 -1 -3 -1 -3 0 -4 0 -1 1 -2 1 -1 1 -1 0 -1 -1 0 -2 0 0 -187 -327 94 382 -362 -159 50z"/>
   <g>
    <g>
     <path fill="#4F9E00" d="M7734 7835c-21,68 -6,820 -6,957l0 3817c0,299 -34,621 79,874 89,203 268,380 490,462 288,105 613,26 895,58 10,81 2,1587 2,1713 0,296 66,486 221,646 129,132 320,260 598,260 226,-1 469,-108 600,-265 153,-181 215,-326 215,-641 0,-111 -10,-1647 4,-1715l1081 2c13,54 4,1614 4,1713 0,390 140,672 465,826 102,48 221,79 350,80 254,0 440,-102 602,-264 177,-178 217,-396 217,-642 0,-103 -9,-1654 3,-1713 274,-34 611,49 899,-60 224,-85 395,-258 487,-465 110,-246 77,-585 77,-877l0 -2865c0,-127 11,-1823 -5,-1901l-7278 0zm-1941 4161c40,432 438,802 933,730 238,-34 425,-174 524,-305 156,-207 174,-347 174,-659 0,-557 0,-1114 0,-1671 0,-170 8,-1528 -5,-1660 -41,-427 -433,-798 -925,-728 -234,33 -392,141 -528,303 -155,186 -176,366 -176,657 0,557 0,1114 0,1671 0,177 -10,1522 3,1662zm11156 16c18,-135 6,-3196 6,-3325 0,-297 -13,-478 -168,-673 -110,-138 -272,-270 -522,-309 -493,-77 -886,284 -937,705 -19,152 -7,3183 -7,3328 0,305 11,470 167,674 102,134 276,273 517,312 506,82 890,-284 944,-712zm-3956 -6401c185,-40 327,89 358,230 41,186 -89,336 -235,365 -390,78 -522,-508 -123,-595zm-3354 -3c401,-68 492,532 105,599 -397,69 -503,-530 -105,-599zm3896 -766c-123,-85 -235,-144 -372,-224 10,-38 301,-550 329,-602 55,-100 111,-196 167,-301 35,-67 171,-238 21,-301 -73,-31 -127,12 -152,57l-414 748c-57,97 -107,201 -164,294 -49,-14 -118,-48 -171,-69 -174,-68 -369,-125 -552,-166 -676,-153 -1433,-116 -2089,105l-343 130c-58,-94 -109,-200 -167,-299l-334 -603c-27,-47 -54,-103 -83,-150 -25,-40 -84,-78 -152,-45 -137,67 -12,227 33,309 54,101 108,197 163,296 57,103 113,201 167,302 27,48 151,262 160,295 -66,39 -131,71 -196,110 -256,153 -464,320 -672,523l-146 152c-397,434 -685,995 -791,1597 -22,124 -64,433 -46,547 2428,0 4855,0 7283,0 18,-126 -25,-426 -47,-554 -79,-443 -279,-919 -529,-1263 -124,-172 -387,-488 -565,-629 -55,-43 -108,-89 -165,-134 -56,-43 -113,-84 -173,-125z"/>
    </g>
    <g>
     <g>
      <g>
       <g>
        <path fill="#4882C3" fill-rule="nonzero" d="M29580 13111l-5706 1633 -4826 -3142 5047 -1285 5485 2794z"/>
       </g>
       <g>
        <path fill="#75AADB" fill-rule="nonzero" d="M23899 16153l-4630 -3309c-430,-319 -508,-802 -221,-1242l4826 3142 25 1409z"/>
       </g>
       <g>
        <path fill="#FFC10C" fill-rule="nonzero" d="M19808 12094l-361 -233c-288,438 -211,935 219,1251l279 186c-370,-315 -409,-790 -137,-1204z"/>
       </g>
       <g>
        <path fill="#FFC10C" fill-rule="nonzero" d="M23168 14276l-393 -245c-316,466 -289,1113 178,1446l313 211c-402,-333 -397,-971 -98,-1412z"/>
       </g>
       <path fill="#1F4282" fill-rule="nonzero" d="M29580 14408l-5681 1745c-483,-432 -357,-934 -25,-1409l5706 -1633 0 1297z"/>
       <path fill="#CFD1D3" fill-rule="nonzero" d="M23924 16043c-405,-382 -254,-812 11,-1215l5645 -1610 0 1072 -5656 1753z"/>
       <path fill="#FFC10C" fill-rule="nonzero" d="M19447 11861l361 233 5111 -1357 -407 -208 -5065 1332z"/>
       <path fill="#FFC10C" fill-rule="nonzero" d="M22775 14031l393 245 5636 -1560 -481 -245 -5548 1560z"/>
      </g>
      <g>
       <g>
        <path fill="#BA9E75" fill-rule="nonzero" d="M29580 13340c-2,-9 9,-13 0,-11l-5353 1518 0 34 5353 -1521c9,-2 3,-11 0,-20z"/>
       </g>
       <g>
        <path fill="#BA9E75" fill-rule="nonzero" d="M29580 13461c-2,-8 9,-13 0,-11l-5353 1543 0 34 5353 -1545c9,-3 3,-12 0,-21z"/>
       </g>
       <g>
        <path fill="#BA9E75" fill-rule="nonzero" d="M29580 13583c-2,-9 9,-14 0,-11l-5353 1566 0 34 5353 -1569c9,-2 3,-11 0,-20z"/>
       </g>
       <g>
        <path fill="#BA9E75" fill-rule="nonzero" d="M29580 13705c-2,-9 9,-14 0,-12l-5353 1591 0 34 5353 -1593c9,-3 3,-12 0,-20z"/>
       </g>
       <g>
        <path fill="#BA9E75" fill-rule="nonzero" d="M29580 13826c-2,-9 9,-14 0,-11l-5353 1615 0 35 5353 -1618c9,-3 3,-12 0,-21z"/>
       </g>
       <g>
        <path fill="#BA9E75" fill-rule="nonzero" d="M29580 13948c-2,-9 9,-14 0,-11l-5353 1640 0 34 5353 -1643c9,-3 3,-12 0,-20z"/>
       </g>
       <g>
        <path fill="#BA9E75" fill-rule="nonzero" d="M29580 14069c-2,-8 9,-13 0,-11l-5353 1665 0 34 5353 -1667c9,-3 3,-12 0,-21z"/>
       </g>
       <g>
        <path fill="#BA9E75" fill-rule="nonzero" d="M29580 14191c-2,-9 9,-14 0,-11l-5353 1690 0 34 5353 -1693c9,-2 3,-11 0,-20z"/>
       </g>
      </g>
     </g>
     <g>
      <g>
       <g>
        <path fill="#DB2626" fill-rule="nonzero" d="M19449 9541l4764 2918 5529 -1382 -4391 -2510 -5902 974z"/>
       </g>
       <g>
        <path fill="#D8573B" fill-rule="nonzero" d="M23907 13797l5274 -1482c479,-172 777,-729 561,-1238l-5529 1382 -306 1338z"/>
       </g>
       <g>
        <path fill="#F69734" fill-rule="nonzero" d="M28907 11313l397 -111c217,506 34,1045 -444,1214l-423 113c418,-187 676,-737 470,-1216z"/>
       </g>
       <g>
        <path fill="#8A1846" fill-rule="nonzero" d="M19449 10949l4458 2848c548,-264 562,-781 306,-1338l-4764 -2918 0 1408z"/>
       </g>
       <path fill="#CFD1D3" fill-rule="nonzero" d="M23899 13684c462,-239 442,-697 240,-1163l-4690 -2884 0 1206 4450 2841z"/>
       <g>
        <path fill="#F69734" fill-rule="nonzero" d="M29304 11202l-397 111 -4442 -2600 437 -72 4402 2561z"/>
       </g>
      </g>
      <g>
       <g>
        <path fill="#BA9E75" fill-rule="nonzero" d="M23868 12466l-4418 -2728c1,2 1,4 0,6 -5,10 -11,24 0,31l4409 2721c3,-10 6,-20 9,-30z"/>
       </g>
       <g>
        <path fill="#BA9E75" fill-rule="nonzero" d="M23831 12597l-4379 -2711c0,1 0,3 -1,5 -5,11 -10,24 1,31l4371 2706c3,-10 5,-21 8,-31z"/>
       </g>
       <g>
        <path fill="#BA9E75" fill-rule="nonzero" d="M23799 12731l-4346 -2698c1,1 1,3 0,5 -5,10 -11,24 0,31l4339 2694c2,-11 5,-21 7,-32z"/>
       </g>
       <g>
        <path fill="#BA9E75" fill-rule="nonzero" d="M23770 12867l-4315 -2688c0,2 0,4 -1,6 -5,10 -10,24 1,30l4308 2684c2,-10 5,-21 7,-32z"/>
       </g>
       <g>
        <path fill="#BA9E75" fill-rule="nonzero" d="M23742 13005l-4286 -2680c1,2 1,4 0,6 -5,10 -11,24 0,30l4279 2676c2,-11 5,-21 7,-32z"/>
       </g>
       <g>
        <path fill="#BA9E75" fill-rule="nonzero" d="M23714 13143l-4256 -2672c0,2 0,3 -1,5 -5,11 -10,24 1,31l4249 2668c2,-11 4,-22 7,-32z"/>
       </g>
       <g>
        <path fill="#BA9E75" fill-rule="nonzero" d="M23684 13279l-4225 -2662c1,1 1,3 0,5 -5,10 -11,24 0,30l4217 2660c3,-11 5,-22 8,-33z"/>
       </g>
       <g>
        <path fill="#BA9E75" fill-rule="nonzero" d="M23650 13415l-4189 -2653c0,1 0,3 -1,5 -5,10 -11,24 0,30l4182 2649c3,-10 6,-21 8,-31z"/>
       </g>
      </g>
     </g>
     <g>
      <g>
       <g>
        <path fill="#D8573B" fill-rule="nonzero" d="M28220 9144l-4905 1404 -4172 -2604 4362 -1201 4715 2401z"/>
       </g>
       <g>
        <path fill="#F69734" fill-rule="nonzero" d="M23524 11718l-4167 -2682c-370,-275 -461,-713 -214,-1092l4172 2604 209 1170z"/>
       </g>
       <g>
        <path fill="#FFC10C" fill-rule="nonzero" d="M19796 8367l-310 -200c-248,376 -157,827 212,1099l240 160c-318,-271 -376,-703 -142,-1059z"/>
       </g>
       <g>
        <path fill="#FFC10C" fill-rule="nonzero" d="M22709 10146l-338 -211c-272,401 -202,854 200,1141l269 181c-346,-286 -388,-732 -131,-1111z"/>
       </g>
       <g>
        <path fill="#F48033" fill-rule="nonzero" d="M28220 10259l-4696 1459c-415,-372 -494,-761 -209,-1170l4905 -1404 0 1115z"/>
       </g>
       <path fill="#CFD1D3" fill-rule="nonzero" d="M23545 11623c-347,-328 -405,-657 -177,-1002l4852 -1385 0 921 -4675 1466z"/>
       <path fill="#FFC10C" fill-rule="nonzero" d="M19486 8167l310 200 4418 -1264 -350 -178 -4378 1242z"/>
       <path fill="#FFC10C" fill-rule="nonzero" d="M22371 9935l338 211 4844 -1341 -414 -211 -4768 1341z"/>
      </g>
      <g>
       <g>
        <path fill="#BA9E75" fill-rule="nonzero" d="M23437 10718c-8,1 -15,-3 -16,-10 -3,-8 2,-16 9,-18l4790 -1359c8,-1 -2,3 0,10 2,8 8,15 0,17l-4782 1359c-1,0 -1,1 -1,1z"/>
       </g>
       <g>
        <path fill="#BA9E75" fill-rule="nonzero" d="M23458 10837c-7,1 -14,-3 -16,-10 -2,-7 2,-15 10,-17l4768 -1374c7,-2 -2,2 0,10 2,7 8,15 0,17l-4761 1374c0,0 -1,0 -1,0z"/>
       </g>
       <g>
        <path fill="#BA9E75" fill-rule="nonzero" d="M23479 10957c-7,1 -14,-3 -16,-10 -2,-7 2,-15 10,-17l4747 -1390c7,-2 -2,3 0,10 2,8 8,15 0,17l-4739 1390c-1,0 -1,0 -2,0z"/>
       </g>
       <g>
        <path fill="#BA9E75" fill-rule="nonzero" d="M23501 11077c-8,1 -14,-3 -16,-10 -3,-8 2,-16 9,-18l4726 -1404c7,-2 -2,2 0,10 2,7 8,15 0,17l-4718 1404c-1,1 -1,1 -1,1z"/>
       </g>
       <g>
        <path fill="#BA9E75" fill-rule="nonzero" d="M23522 11196c-7,2 -14,-2 -16,-9 -2,-8 2,-16 9,-18l4705 -1419c8,-3 -2,2 0,9 2,7 8,15 0,18l-4697 1419c0,0 -1,0 -1,0z"/>
       </g>
       <g>
        <path fill="#BA9E75" fill-rule="nonzero" d="M23543 11316c-7,1 -14,-3 -16,-10 -2,-7 2,-15 10,-17l4683 -1435c7,-2 -2,2 0,10 2,7 8,15 0,17l-4675 1435c-1,0 -1,0 -2,0z"/>
       </g>
       <g>
        <path fill="#BA9E75" fill-rule="nonzero" d="M23564 11436c-6,1 -13,-3 -15,-10 -3,-7 1,-15 9,-18l4662 -1449c8,-2 -2,2 0,9 2,7 8,15 0,18l-4654 1449c0,1 -1,1 -2,1z"/>
       </g>
       <g>
        <path fill="#BA9E75" fill-rule="nonzero" d="M23586 11555c-7,2 -14,-2 -16,-9 -2,-8 2,-16 9,-18l4641 -1465c7,-2 -2,2 0,10 2,7 8,15 0,17l-4633 1465c0,0 -1,0 -1,0z"/>
       </g>
      </g>
     </g>
     <g>
      <g>
       <g>
        <path fill="#8A1846" fill-rule="nonzero" d="M28275 7761l-4905 1404 -4172 -2604 4362 -1201 4715 2401z"/>
       </g>
       <g>
        <path fill="#B63B6E" fill-rule="nonzero" d="M23578 10335l-4166 -2682c-370,-275 -461,-713 -214,-1092l4172 2604 208 1170z"/>
       </g>
       <g>
        <path fill="#FFC10C" fill-rule="nonzero" d="M22763 8763l-337 -211c-272,401 -202,854 200,1141l268 181c-345,-286 -388,-732 -131,-1111z"/>
       </g>
       <g>
        <path fill="#B63B6E" fill-rule="nonzero" d="M28275 8876l-4697 1459c-414,-372 -493,-761 -208,-1170l4905 -1404 0 1115z"/>
       </g>
       <path fill="#CFD1D3" fill-rule="nonzero" d="M23600 10240c-347,-328 -406,-657 -177,-1002l4852 -1384 0 921 -4675 1465z"/>
      </g>
      <g>
       <g>
        <path fill="#BA9E75" fill-rule="nonzero" d="M23491 9335c-7,1 -14,-3 -16,-10 -2,-8 2,-16 10,-18l4790 -1359c7,-1 -2,3 0,10 2,8 7,15 0,18l-4782 1358c-1,0 -1,1 -2,1z"/>
       </g>
       <g>
        <path fill="#BA9E75" fill-rule="nonzero" d="M23512 9454c-7,2 -13,-3 -15,-10 -3,-7 2,-15 9,-17l4769 -1374c7,-2 -2,2 0,10 2,7 7,15 0,17l-4761 1374c-1,0 -1,0 -2,0z"/>
       </g>
       <g>
        <path fill="#BA9E75" fill-rule="nonzero" d="M23534 9574c-7,1 -14,-3 -16,-10 -2,-7 2,-15 9,-17l4748 -1390c7,-2 -2,3 0,10 2,8 7,15 0,18l-4740 1389c0,0 -1,0 -1,0z"/>
       </g>
       <g>
        <path fill="#BA9E75" fill-rule="nonzero" d="M23555 9694c-7,1 -14,-3 -16,-10 -2,-8 2,-15 10,-18l4726 -1404c7,-2 -2,2 0,10 2,7 7,15 0,17l-4718 1404c-1,1 -1,1 -2,1z"/>
       </g>
       <g>
        <path fill="#BA9E75" fill-rule="nonzero" d="M23576 9813c-7,2 -13,-3 -16,-9 -2,-8 3,-16 10,-18l4705 -1419c7,-3 -2,2 0,9 2,8 7,15 0,18l-4697 1419c0,0 -1,0 -2,0z"/>
       </g>
       <g>
        <path fill="#BA9E75" fill-rule="nonzero" d="M23598 9933c-7,1 -14,-3 -16,-10 -2,-7 2,-15 9,-17l4684 -1435c7,-2 -2,2 0,10 2,7 7,15 0,17l-4676 1435c0,0 -1,0 -1,0z"/>
       </g>
       <g>
        <path fill="#BA9E75" fill-rule="nonzero" d="M23619 10053c-7,1 -14,-3 -16,-10 -2,-7 2,-15 10,-17l4662 -1450c7,-2 -3,2 0,9 2,8 7,15 0,18l-4654 1450c-1,0 -1,0 -2,0z"/>
       </g>
       <g>
        <path fill="#BA9E75" fill-rule="nonzero" d="M23640 10173c-7,1 -13,-3 -16,-10 -2,-8 2,-15 10,-18l4641 -1465c7,-2 -3,2 0,10 2,7 7,15 0,17l-4633 1465c-1,0 -1,0 -2,1z"/>
       </g>
      </g>
     </g>
    </g>
   </g>
   <path fill="#373435" fill-opacity="0.031373" d="M2082 17547c68,104 112,203 155,312 32,64 49,183 199,183 44,0 107,-14 163,-45 63,-33 111,-83 136,-159l60 -202 146 -72 10 10c-20,77 -25,149 -25,206 0,170 146,234 262,234 68,0 129,-34 129,-95 0,-81 -34,-217 -78,-339 68,-68 136,-136 214,-191l12 6c34,144 53,287 53,381 0,93 -41,196 -75,264 -70,132 -194,238 -344,238 -114,0 -241,-58 -328,-163l-5 0c-82,101 -209,193 -412,193l-63 0c-10,134 -39,229 -83,314 -121,237 -480,404 -818,404 -470,0 -706,-272 -706,-633 0,-223 73,-431 185,-578l92 38c-70,134 -117,262 -117,385 0,338 275,499 592,499 294,0 658,-187 724,-404 -25,-237 -114,-348 -250,-565 41,-72 94,-144 160,-221l12 0zm5421 -1274c99,62 196,136 291,221 -53,74 -119,142 -201,202 -95,-77 -190,-143 -287,-213 66,-74 131,-146 197,-210zm51 926c-160,0 -291,105 -291,183 0,168 320,219 703,217 -48,-196 -216,-400 -412,-400zm-359 895c208,0 390,-6 529,-41 155,-39 286,-118 286,-171 0,-15 0,-31 -5,-46 -87,8 -187,8 -274,8 -282,0 -498,-64 -583,-222 -21,-44 -36,-93 -36,-149 0,-152 66,-303 182,-406 97,-85 204,-138 313,-138 197,0 354,158 464,408 60,136 101,293 101,491 0,132 -36,243 -118,326 -153,148 -435,204 -867,204l-196 0 0 0 -51 0c-107,0 -184,-19 -245,-66l-10 0c3,25 5,50 5,72 0,97 -32,221 -97,320 -192,287 -400,410 -580,410 -182,0 -405,-70 -606,-161l36 -70c65,27 155,46 279,46 325,0 752,-314 805,-619 -12,-25 -34,-58 -65,-93 -95,-113 -155,-208 -211,-307 48,-95 92,-171 133,-239l17 -2c139,282 265,445 546,445l44 0 0 0 204 0zm-1408 299c24,-130 26,-276 26,-413l0 -202c0,-377 -48,-926 -87,-1282 68,-75 163,-161 238,-219l22 6c51,450 63,972 63,1452 0,126 -5,250 -17,340 -7,114 -73,201 -214,332l-31 -14zm-1449 -596c7,177 94,318 398,318 189,0 349,-50 526,-135 32,-14 49,-33 49,-49 0,-111 -85,-258 -228,-392 -139,-126 -323,-237 -495,-311 -59,-25 -78,-52 -78,-77 0,-51 68,-158 124,-235l19 -2c197,103 417,256 580,427 148,157 240,316 240,489 0,128 -39,250 -102,361 -216,109 -446,192 -674,192 -277,0 -466,-130 -466,-436 0,-33 0,-84 12,-150l95 0zm-501 -503l172 278c63,103 122,215 122,392l0 227c0,183 -117,379 -306,573 -148,132 -279,188 -400,188 -180,0 -386,-56 -624,-159l27 -70c75,21 162,37 269,37 342,-2 692,-252 852,-557 19,-35 26,-68 26,-90 0,-36 -19,-75 -34,-110 -87,-165 -184,-315 -291,-453 56,-89 112,-174 173,-258l14 2z"/>
  </g>
 </g>
</svg>
